<svg width="22" height="18" viewBox="0 0 22 18" fill="none" xmlns="http://www.w3.org/2000/svg">
<path d="M21.46 2.5C20.69 2.85 19.86 3.08 19 3.19C19.88 2.66 20.56 1.82 20.88 0.81C20.05 1.31 19.13 1.66 18.16 1.86C17.37 1 16.26 0.5 15 0.5C12.65 0.5 10.73 2.42 10.73 4.79C10.73 5.13 10.77 5.46 10.84 5.77C7.28004 5.59 4.11004 3.88 2.00004 1.29C1.63004 1.92 1.42004 2.66 1.42004 3.44C1.42004 4.93 2.17004 6.25 3.33004 7C2.62004 7 1.96004 6.8 1.38004 6.5V6.53C1.38004 8.61 2.86004 10.35 4.82004 10.74C4.19077 10.9122 3.53013 10.9362 2.89004 10.81C3.16165 11.6625 3.69358 12.4084 4.41106 12.9429C5.12854 13.4775 5.99549 13.7737 6.89004 13.79C5.37367 14.9904 3.49404 15.6393 1.56004 15.63C1.22004 15.63 0.880039 15.61 0.540039 15.57C2.44004 16.79 4.70004 17.5 7.12004 17.5C15 17.5 19.33 10.96 19.33 5.29C19.33 5.1 19.33 4.92 19.32 4.73C20.16 4.13 20.88 3.37 21.46 2.5Z" fill="#878787"/>
</svg>
