<svg width="21" height="21" viewBox="0 0 21 21" fill="none" xmlns="http://www.w3.org/2000/svg">
<path d="M6.3 0.273926H14.7C17.9 0.273926 20.5 2.87393 20.5 6.07393V14.4739C20.5 16.0122 19.8889 17.4874 18.8012 18.5751C17.7135 19.6629 16.2383 20.2739 14.7 20.2739H6.3C3.1 20.2739 0.5 17.6739 0.5 14.4739V6.07393C0.5 4.53567 1.11107 3.06042 2.19878 1.97271C3.28649 0.884996 4.76174 0.273926 6.3 0.273926ZM6.1 2.27393C5.14522 2.27393 4.22955 2.65321 3.55442 3.32834C2.87928 4.00347 2.5 4.91915 2.5 5.87393V14.6739C2.5 16.6639 4.11 18.2739 6.1 18.2739H14.9C15.8548 18.2739 16.7705 17.8946 17.4456 17.2195C18.1207 16.5444 18.5 15.6287 18.5 14.6739V5.87393C18.5 3.88393 16.89 2.27393 14.9 2.27393H6.1ZM15.75 3.77393C16.0815 3.77393 16.3995 3.90562 16.6339 4.14004C16.8683 4.37446 17 4.69241 17 5.02393C17 5.35545 16.8683 5.67339 16.6339 5.90781C16.3995 6.14223 16.0815 6.27393 15.75 6.27393C15.4185 6.27393 15.1005 6.14223 14.8661 5.90781C14.6317 5.67339 14.5 5.35545 14.5 5.02393C14.5 4.69241 14.6317 4.37446 14.8661 4.14004C15.1005 3.90562 15.4185 3.77393 15.75 3.77393ZM10.5 5.27393C11.8261 5.27393 13.0979 5.80071 14.0355 6.73839C14.9732 7.67607 15.5 8.94784 15.5 10.2739C15.5 11.6 14.9732 12.8718 14.0355 13.8095C13.0979 14.7471 11.8261 15.2739 10.5 15.2739C9.17392 15.2739 7.90215 14.7471 6.96447 13.8095C6.02678 12.8718 5.5 11.6 5.5 10.2739C5.5 8.94784 6.02678 7.67607 6.96447 6.73839C7.90215 5.80071 9.17392 5.27393 10.5 5.27393ZM10.5 7.27393C9.70435 7.27393 8.94129 7.59 8.37868 8.15261C7.81607 8.71521 7.5 9.47828 7.5 10.2739C7.5 11.0696 7.81607 11.8326 8.37868 12.3952C8.94129 12.9579 9.70435 13.2739 10.5 13.2739C11.2956 13.2739 12.0587 12.9579 12.6213 12.3952C13.1839 11.8326 13.5 11.0696 13.5 10.2739C13.5 9.47828 13.1839 8.71521 12.6213 8.15261C12.0587 7.59 11.2956 7.27393 10.5 7.27393Z" fill="#D6D6D6"/>
</svg>
