<svg width="20" height="19" viewBox="0 0 20 19" fill="none" xmlns="http://www.w3.org/2000/svg">
<path d="M4.43994 2.27395C4.43968 2.80438 4.22871 3.31298 3.85345 3.68787C3.47819 4.06276 2.96937 4.27321 2.43894 4.27295C1.90851 4.27268 1.39991 4.06172 1.02502 3.68646C0.650136 3.3112 0.439676 2.80238 0.439942 2.27195C0.440207 1.74152 0.651175 1.23291 1.02644 0.858029C1.4017 0.483143 1.91051 0.272684 2.44094 0.272949C2.97137 0.273215 3.47998 0.484183 3.85486 0.859443C4.22975 1.2347 4.44021 1.74352 4.43994 2.27395ZM4.49994 5.75395H0.499942V18.2739H4.49994V5.75395ZM10.8199 5.75395H6.83994V18.2739H10.7799V11.7039C10.7799 8.04395 15.5499 7.70395 15.5499 11.7039V18.2739H19.4999V10.3439C19.4999 4.17395 12.4399 4.40395 10.7799 7.43395L10.8199 5.75395Z" fill="#D6D6D6"/>
</svg>
