<svg width="21" height="18" viewBox="0 0 21 18" fill="none" xmlns="http://www.w3.org/2000/svg">
<path d="M20.96 2.77393C20.19 3.12393 19.36 3.35393 18.5 3.46393C19.38 2.93393 20.06 2.09393 20.38 1.08393C19.55 1.58393 18.63 1.93393 17.66 2.13393C16.87 1.27393 15.76 0.773926 14.5 0.773926C12.15 0.773926 10.23 2.69393 10.23 5.06393C10.23 5.40393 10.27 5.73393 10.34 6.04393C6.78004 5.86393 3.61004 4.15393 1.50004 1.56393C1.13004 2.19393 0.920039 2.93393 0.920039 3.71393C0.920039 5.20393 1.67004 6.52393 2.83004 7.27393C2.12004 7.27393 1.46004 7.07393 0.880039 6.77393V6.80393C0.880039 8.88393 2.36004 10.6239 4.32004 11.0139C3.69077 11.1861 3.03013 11.2101 2.39004 11.0839C2.66165 11.9364 3.19358 12.6823 3.91106 13.2169C4.62854 13.7514 5.49549 14.0476 6.39004 14.0639C4.87367 15.2644 2.99404 15.9132 1.06004 15.9039C0.720039 15.9039 0.380039 15.8839 0.0400391 15.8439C1.94004 17.0639 4.20004 17.7739 6.62004 17.7739C14.5 17.7739 18.83 11.2339 18.83 5.56393C18.83 5.37393 18.83 5.19393 18.82 5.00393C19.66 4.40393 20.38 3.64393 20.96 2.77393Z" fill="#D6D6D6"/>
</svg>
