<svg width="40" height="40" viewBox="0 0 40 40" fill="none" xmlns="http://www.w3.org/2000/svg">
<path d="M30.573 17.5547C30.0036 18.1266 29.5676 18.8169 29.296 19.5763C29.0243 20.3357 28.9238 21.1456 29.0015 21.9482L28.9745 21.9212C29.0544 22.8661 28.9267 23.8168 28.6005 24.7073C28.2743 25.5977 27.7575 26.4064 27.0861 27.0769C26.4145 27.7472 25.6045 28.2634 24.7126 28.5889C23.8207 28.9145 22.8683 29.042 21.9221 28.9622L21.9492 28.9892C20.8173 28.8841 19.6804 29.1299 18.6934 29.6935C17.7067 30.2571 16.9179 31.1107 16.4349 32.1382C15.9518 33.1657 15.7978 34.3168 15.9941 35.4349C16.1904 36.5529 16.7272 37.5832 17.5315 38.3854C18.3357 39.1877 19.3682 39.7227 20.4881 39.9176C21.6081 40.1126 22.7609 39.9578 23.7896 39.4746C24.8183 38.9913 25.6726 38.2032 26.2362 37.2174C26.7997 36.2316 27.0451 35.0964 26.9387 33.9663L26.9672 33.9933C26.8873 33.0486 27.0149 32.0977 27.341 31.2072C27.6672 30.3168 28.1842 29.5081 28.8556 28.8376C29.5272 28.1672 30.3371 27.6511 31.229 27.3256C32.121 26.9999 33.0732 26.8724 34.0196 26.9522L33.991 26.9252C34.9156 27.0082 35.8463 26.8568 36.6969 26.4851C37.5472 26.1134 38.29 25.5334 38.8561 24.7988C39.4222 24.0643 39.7936 23.1988 39.9355 22.2829C40.0774 21.3668 39.9855 20.4299 39.6682 19.5587C39.3509 18.6876 38.8184 17.9106 38.1202 17.2997C37.4221 16.6887 36.5807 16.2636 35.6742 16.0638C34.7676 15.864 33.8251 15.8958 32.9342 16.1564C32.0433 16.4171 31.2327 16.898 30.5775 17.5547H30.573Z" fill="#2798FF"/>
<path d="M19.4898 25.4525L19.4612 25.4255C20.2655 25.5064 21.0777 25.4078 21.8393 25.1369C22.6007 24.866 23.2924 24.4297 23.8642 23.8592C24.4359 23.2888 24.8737 22.5985 25.1455 21.8384C25.4174 21.0784 25.5167 20.2676 25.4363 19.4645L25.4649 19.4915C25.3849 18.5466 25.5127 17.5959 25.8387 16.7054C26.1648 15.815 26.6818 15.0063 27.3533 14.3358C28.0248 13.6655 28.8348 13.1493 29.7266 12.8238C30.6186 12.4981 31.5708 12.3707 32.5172 12.4505L32.4887 12.4235C33.6207 12.5297 34.7579 12.2845 35.7453 11.7216C36.7328 11.1587 37.5222 10.3054 38.006 9.2781C38.4897 8.2508 38.6443 7.0995 38.4487 5.98123C38.2531 4.86296 37.7168 3.83219 36.9127 3.02947C36.1087 2.22677 35.0763 1.69121 33.9562 1.49588C32.8362 1.30053 31.6831 1.4549 30.6541 1.93793C29.6251 2.42095 28.7705 3.20913 28.2066 4.19495C27.6428 5.18075 27.3973 6.31621 27.5036 7.44644L27.4766 7.41794C27.5567 8.36278 27.4293 9.31369 27.1033 10.2043C26.7772 11.0949 26.2603 11.9037 25.5888 12.5742C24.9172 13.2446 24.1071 13.7607 23.2152 14.0862C22.323 14.4117 21.3706 14.5389 20.4243 14.459L20.4513 14.4875C19.6471 14.4066 18.8347 14.5052 18.0733 14.7761C17.3119 15.0468 16.6202 15.4833 16.0484 16.0538C15.4765 16.6242 15.0389 17.3145 14.7669 18.0746C14.4952 18.8346 14.3958 19.6454 14.4762 20.4485L14.4492 20.4215C14.5288 21.3662 14.401 22.3169 14.0748 23.2073C13.7485 24.0976 13.2316 24.9062 12.5602 25.5766C11.8887 26.2469 11.0788 26.7629 10.1871 27.0887C9.2953 27.4144 8.34309 27.542 7.39685 27.4625L7.4239 27.4895C6.29186 27.3833 5.15458 27.6284 4.16718 28.1914C3.17979 28.7544 2.39035 29.6076 1.90656 30.6349C1.42275 31.6623 1.26812 32.8135 1.46378 33.9318C1.65944 35.05 2.19586 36.0808 2.99985 36.8835C3.80385 37.6863 4.83628 38.2218 5.95634 38.4171C7.07641 38.6124 8.22955 38.4581 9.25851 37.9751C10.2875 37.492 11.1421 36.7039 11.7059 35.7181C12.2698 34.7322 12.5153 33.5968 12.4089 32.4666L12.4375 32.4936C12.3575 31.5487 12.4852 30.598 12.8114 29.7075C13.1374 28.8171 13.6544 28.0084 14.3258 27.3379C14.9974 26.6675 15.8074 26.1514 16.6992 25.8259C17.5912 25.5002 18.5434 25.3727 19.4898 25.4525Z" fill="#2798FF"/>
<path d="M9.41998 22.4418C9.98942 21.87 10.4254 21.1797 10.6968 20.4203C10.9682 19.6608 11.0683 18.8508 10.99 18.0483L11.0185 18.0753C10.9386 17.1303 11.0662 16.1791 11.3926 15.2884C11.7189 14.3977 12.2361 13.5889 12.908 12.9184C13.5799 12.2479 14.3901 11.732 15.2824 11.4065C16.1747 11.0811 17.1274 10.954 18.0739 11.0343L18.0453 11.0073C19.177 11.1131 20.3138 10.8679 21.3008 10.305C22.2877 9.74217 23.0766 8.88907 23.5602 7.86209C24.0437 6.83509 24.1982 5.68421 24.0026 4.56636C23.8069 3.44851 23.2706 2.41812 22.4669 1.61571C21.6633 0.813294 20.6311 0.277911 19.5115 0.0825803C18.3919 -0.112766 17.2391 0.0414651 16.2106 0.524198C15.1819 1.00693 14.3275 1.79469 13.7638 2.78004C13.1999 3.7654 12.9543 4.9004 13.0603 6.03023L13.0333 6.00323C13.1132 6.94801 12.9855 7.89882 12.6593 8.78929C12.3332 9.67975 11.8164 10.4884 11.1448 11.1589C10.4733 11.8293 9.66335 12.3454 8.77146 12.6709C7.87957 12.9966 6.92725 13.1241 5.98096 13.0443L6.008 13.0713C5.08337 12.9885 4.15276 13.1401 3.30242 13.512C2.45209 13.8838 1.70952 14.464 1.14355 15.1987C0.577571 15.9333 0.206505 16.7988 0.0647073 17.7147C-0.0770754 18.6307 0.0150075 19.5677 0.332422 20.4386C0.649837 21.3096 1.18234 22.0865 1.88055 22.6973C2.57877 23.3082 3.42012 23.7332 4.32665 23.933C5.23316 24.1326 6.17552 24.1007 7.0664 23.8401C7.95727 23.5794 8.76783 23.0985 9.42297 22.4418H9.41998Z" fill="#2798FF"/>
</svg>
