<svg width="44" height="67" viewBox="0 0 44 67" fill="none" xmlns="http://www.w3.org/2000/svg">
<g clip-path="url(#clip0_1829_1572)">
<path d="M22 33.2739C22 27.2608 26.8747 22.3859 32.888 22.3859C38.9012 22.3859 43.776 27.2608 43.776 33.2739C43.776 39.2873 38.9012 44.162 32.888 44.162C26.8747 44.162 22 39.2873 22 33.2739Z" fill="#1ABCFE"/>
<path d="M0.223999 55.0499C0.223999 49.0368 5.09872 44.1619 11.112 44.1619H22V55.0499C22 61.0633 17.1253 65.938 11.112 65.938C5.09872 65.938 0.223999 61.0633 0.223999 55.0499Z" fill="#0ACF83"/>
<path d="M22 0.609955V22.3859H32.888C38.9013 22.3859 43.776 17.5112 43.776 11.498C43.776 5.48469 38.9013 0.609955 32.888 0.609955H22Z" fill="#FF7262"/>
<path d="M0.223999 11.498C0.223999 17.5112 5.09872 22.3859 11.112 22.3859H22V0.609955H11.112C5.09872 0.609955 0.223999 5.48468 0.223999 11.498Z" fill="#F24E1E"/>
<path d="M0.223999 33.2739C0.223999 39.2873 5.09872 44.162 11.112 44.162H22V22.3859H11.112C5.09872 22.3859 0.223999 27.2608 0.223999 33.2739Z" fill="#A259FF"/>
</g>
<defs>
<clipPath id="clip0_1829_1572">
<rect width="44" height="66" fill="white" transform="translate(0 0.273926)"/>
</clipPath>
</defs>
</svg>
