<svg width="44" height="45" viewBox="0 0 44 45" fill="none" xmlns="http://www.w3.org/2000/svg">
<g clip-path="url(#clip0_1829_1617)">
<path d="M22.0002 0.273926C9.85141 0.273926 0 10.3599 0 22.8021C0 32.7557 6.30372 41.2002 15.0451 44.179C16.1446 44.3876 16.5482 43.6903 16.5482 43.0953C16.5482 42.5581 16.5278 40.7835 16.5184 38.901C10.3979 40.2638 9.10639 36.243 9.10639 36.243C8.10562 33.6391 6.66366 32.9467 6.66366 32.9467C4.66759 31.5484 6.81413 31.5772 6.81413 31.5772C9.02332 31.7361 10.1866 33.8987 10.1866 33.8987C12.1488 37.3428 15.3332 36.3471 16.5887 35.7715C16.7861 34.3154 17.3563 33.3216 17.9854 32.759C13.0989 32.1894 7.96208 30.2577 7.96208 21.6255C7.96208 19.1659 8.8215 17.1563 10.2288 15.5786C10.0004 15.0112 9.24738 12.7199 10.442 9.61677C10.442 9.61677 12.2894 9.0113 16.4936 11.926C18.2485 11.4268 20.1305 11.1765 22.0002 11.1679C23.8698 11.1765 25.7533 11.4268 27.5115 11.926C31.7106 9.0113 33.5555 9.61677 33.5555 9.61677C34.753 12.7199 33.9996 15.0112 33.7712 15.5786C35.1818 17.1563 36.0354 19.1659 36.0354 21.6255C36.0354 30.2782 30.8887 32.1834 25.9898 32.7411C26.7789 33.4402 27.482 34.8112 27.482 36.913C27.482 39.9273 27.4565 42.3533 27.4565 43.0953C27.4565 43.6948 27.8525 44.3973 28.9677 44.1761C37.7043 41.1938 44 32.7523 44 22.8021C44 10.3599 34.15 0.273926 22.0002 0.273926ZM8.23978 32.3658C8.19133 32.4777 8.01937 32.5113 7.86272 32.4344C7.70315 32.361 7.61353 32.2084 7.66526 32.0961C7.71262 31.9808 7.88494 31.9487 8.04415 32.0259C8.20408 32.0994 8.29516 32.2535 8.23978 32.3658ZM9.32195 33.3546C9.21703 33.4542 9.01192 33.4079 8.87275 33.2505C8.72885 33.0934 8.70189 32.8834 8.80827 32.7823C8.91647 32.6827 9.11538 32.7293 9.25965 32.8864C9.40355 33.0453 9.43161 33.2539 9.32195 33.3546ZM10.0644 34.6197C9.92956 34.7156 9.70915 34.6257 9.5729 34.4253C9.4381 34.225 9.4381 33.9847 9.57581 33.8885C9.71243 33.7922 9.92956 33.8788 10.0676 34.0776C10.2021 34.2813 10.2021 34.5216 10.0644 34.6197ZM11.3199 36.0849C11.1993 36.221 10.9425 36.1845 10.7545 35.9987C10.5621 35.817 10.5086 35.5592 10.6295 35.423C10.7516 35.2865 11.0099 35.3249 11.1993 35.5092C11.3902 35.6905 11.4485 35.9502 11.3199 36.0849ZM12.9426 36.5795C12.8894 36.7559 12.6421 36.8361 12.3929 36.7612C12.144 36.6839 11.9812 36.4773 12.0315 36.2989C12.0832 36.1214 12.3317 36.0378 12.5827 36.118C12.8311 36.1949 12.9944 36.4 12.9426 36.5795ZM14.7893 36.7893C14.7955 36.9751 14.5842 37.1291 14.3226 37.1325C14.0596 37.1385 13.8468 36.9881 13.8439 36.8053C13.8439 36.6177 14.0505 36.4651 14.3135 36.4606C14.5751 36.4554 14.7893 36.6046 14.7893 36.7893ZM16.6035 36.7181C16.6348 36.8994 16.453 37.0855 16.1933 37.1352C15.9379 37.1829 15.7015 37.071 15.669 36.8912C15.6373 36.7054 15.8224 36.5192 16.0774 36.4711C16.3375 36.4249 16.5703 36.5338 16.6035 36.7181Z" fill="white"/>
</g>
<defs>
<clipPath id="clip0_1829_1617">
<rect width="44" height="44" fill="white" transform="translate(0 0.273926)"/>
</clipPath>
</defs>
</svg>
