<svg width="44" height="45" viewBox="0 0 44 45" fill="none" xmlns="http://www.w3.org/2000/svg">
<g clip-path="url(#clip0_1829_1556)">
<path d="M9.53333 0.273926H34.4667C39.6917 0.273926 44 4.58226 44 9.80726V34.7406C44 39.9656 39.6917 44.2739 34.4667 44.2739H9.53333C4.30833 44.2739 0 39.9656 0 34.7406V9.80726C0 4.58226 4.30833 0.273926 9.53333 0.273926Z" fill="#FFD02F"/>
<path fill-rule="evenodd" clip-rule="evenodd" d="M30.525 5.77393H25.6666L29.7 12.8323L20.9 5.77393H16.0416L20.4416 14.3906L11.275 5.77393H6.41663L11.275 16.7739L6.41663 38.7739H11.275L20.5333 15.2156L16.0416 38.7739H20.9L29.7916 13.6573L25.7583 38.7739H30.6166L39.4166 11.2739L30.525 5.77393Z" fill="#050038"/>
</g>
<defs>
<clipPath id="clip0_1829_1556">
<rect width="44" height="44" fill="white" transform="translate(0 0.273926)"/>
</clipPath>
</defs>
</svg>
