<svg width="44" height="45" viewBox="0 0 44 45" fill="none" xmlns="http://www.w3.org/2000/svg">
<path d="M9.2443 28.0785C9.2443 30.6225 7.16612 32.7006 4.62215 32.7006C2.07818 32.7006 0 30.6225 0 28.0785C0 25.5345 2.07818 23.4563 4.62215 23.4563H9.2443V28.0785Z" fill="#E01E5A"/>
<path d="M11.5732 28.0785C11.5732 25.5345 13.6514 23.4564 16.1954 23.4564C18.7394 23.4564 20.8175 25.5345 20.8175 28.0785V39.6518C20.8175 42.1958 18.7394 44.2739 16.1954 44.2739C13.6514 44.2739 11.5732 42.1958 11.5732 39.6518V28.0785Z" fill="#E01E5A"/>
<path d="M16.1954 9.51823C13.6514 9.51823 11.5732 7.44005 11.5732 4.89608C11.5732 2.3521 13.6514 0.273926 16.1954 0.273926C18.7394 0.273926 20.8175 2.3521 20.8175 4.89608V9.51823H16.1954Z" fill="#36C5F0"/>
<path d="M16.1954 11.8471C18.7394 11.8471 20.8176 13.9253 20.8176 16.4693C20.8176 19.0133 18.7394 21.0914 16.1954 21.0914H4.62215C2.07818 21.0914 0 19.0133 0 16.4693C0 13.9253 2.07818 11.8471 4.62215 11.8471H16.1954Z" fill="#36C5F0"/>
<path d="M34.7565 16.4693C34.7565 13.9253 36.8347 11.8471 39.3787 11.8471C41.9227 11.8471 44.0008 13.9253 44.0008 16.4693C44.0008 19.0133 41.9227 21.0914 39.3787 21.0914H34.7565V16.4693Z" fill="#2EB67D"/>
<path d="M32.4276 16.4694C32.4276 19.0133 30.3494 21.0915 27.8054 21.0915C25.2615 21.0915 23.1833 19.0133 23.1833 16.4694V4.89608C23.1833 2.3521 25.2615 0.273926 27.8054 0.273926C30.3494 0.273926 32.4276 2.3521 32.4276 4.89608V16.4694Z" fill="#2EB67D"/>
<path d="M27.8054 35.0296C30.3494 35.0296 32.4276 37.1077 32.4276 39.6517C32.4276 42.1957 30.3494 44.2739 27.8054 44.2739C25.2615 44.2739 23.1833 42.1957 23.1833 39.6517V35.0296H27.8054Z" fill="#ECB22E"/>
<path d="M27.8054 32.7007C25.2615 32.7007 23.1833 30.6225 23.1833 28.0785C23.1833 25.5345 25.2615 23.4564 27.8054 23.4564H39.3787C41.9227 23.4564 44.0009 25.5345 44.0009 28.0785C44.0009 30.6225 41.9227 32.7007 39.3787 32.7007H27.8054Z" fill="#ECB22E"/>
</svg>
