<svg width="24" height="25" viewBox="0 0 24 25" fill="none" xmlns="http://www.w3.org/2000/svg">
<path d="M11.2835 3.72724C11.514 3.2603 11.6292 3.02683 11.7857 2.95224C11.9218 2.88734 12.0799 2.88734 12.2161 2.95224C12.3725 3.02683 12.4878 3.2603 12.7182 3.72724L14.9049 8.15721C14.973 8.29506 15.007 8.36399 15.0567 8.4175C15.1007 8.46488 15.1535 8.50327 15.2122 8.53055C15.2784 8.56135 15.3545 8.57247 15.5066 8.5947L20.3978 9.30963C20.9129 9.38492 21.1705 9.42256 21.2896 9.54836C21.3933 9.65782 21.4421 9.80822 21.4224 9.9577C21.3997 10.1295 21.2132 10.3111 20.8403 10.6743L17.3023 14.1203C17.192 14.2278 17.1369 14.2815 17.1013 14.3454C17.0698 14.402 17.0496 14.4641 17.0418 14.5284C17.033 14.601 17.046 14.6769 17.072 14.8287L17.9068 19.696C17.9949 20.2094 18.0389 20.4661 17.9562 20.6184C17.8842 20.751 17.7562 20.8439 17.6079 20.8714C17.4375 20.903 17.207 20.7818 16.746 20.5393L12.3732 18.2398C12.237 18.1681 12.1689 18.1323 12.0971 18.1182C12.0336 18.1057 11.9682 18.1057 11.9046 18.1182C11.8329 18.1323 11.7648 18.1681 11.6285 18.2398L7.25578 20.5393C6.79477 20.7818 6.56427 20.903 6.39383 20.8714C6.24554 20.8439 6.11758 20.751 6.04559 20.6184C5.96285 20.4661 6.00688 20.2094 6.09493 19.696L6.92974 14.8287C6.95577 14.6769 6.96878 14.601 6.95997 14.5284C6.95218 14.4641 6.93197 14.402 6.90046 14.3454C6.86488 14.2815 6.80973 14.2278 6.69944 14.1203L3.16141 10.6743C2.78852 10.3111 2.60207 10.1295 2.57938 9.9577C2.55964 9.80822 2.60841 9.65782 2.71211 9.54836C2.83129 9.42256 3.08883 9.38492 3.6039 9.30963L8.49517 8.5947C8.64728 8.57247 8.72333 8.56135 8.78957 8.53055C8.84822 8.50327 8.90102 8.46488 8.94504 8.4175C8.99476 8.36399 9.02878 8.29506 9.09683 8.15721L11.2835 3.72724Z" fill="#FFB000"/>
</svg>
