<svg width="44" height="45" viewBox="0 0 44 45" fill="none" xmlns="http://www.w3.org/2000/svg">
<g clip-path="url(#clip0_1829_1645)">
<path fill-rule="evenodd" clip-rule="evenodd" d="M38.798 0.273926H5.20197C2.31199 0.273926 0 2.58591 0 5.4759V38.9997C0 41.8897 2.31199 44.2017 5.20197 44.2017H38.7258C41.6158 44.2017 43.9277 41.8897 43.9277 38.9997V5.54815C44 2.58591 41.688 0.273926 38.798 0.273926ZM18.9294 31.9915C18.9294 32.9307 18.1346 33.7255 17.1954 33.7255H9.89819C8.95895 33.7255 8.1642 32.9307 8.1642 31.9915V10.1721C8.1642 9.23287 8.95895 8.43813 9.89819 8.43813H17.2677C18.2069 8.43813 19.0016 9.23287 19.0016 10.1721V31.9915H18.9294ZM35.908 21.9488C35.908 22.888 35.1856 23.6828 34.1741 23.755C34.1741 23.755 34.1741 23.755 34.1018 23.755H26.8046C25.8654 23.755 25.0706 22.9603 25.0706 22.0211V10.1721C25.0706 9.23287 25.8654 8.43813 26.8046 8.43813H34.1741C35.1133 8.43813 35.908 9.23287 35.908 10.1721V21.9488Z" fill="url(#paint0_linear_1829_1645)"/>
</g>
<defs>
<linearGradient id="paint0_linear_1829_1645" x1="22.0144" y1="44.3028" x2="22.0144" y2="0.273926" gradientUnits="userSpaceOnUse">
<stop stop-color="#0052CC"/>
<stop offset="1" stop-color="#2684FF"/>
</linearGradient>
<clipPath id="clip0_1829_1645">
<rect width="44" height="44" fill="white" transform="translate(0 0.273926)"/>
</clipPath>
</defs>
</svg>
