<svg width="54" height="55" viewBox="0 0 54 55" fill="none" xmlns="http://www.w3.org/2000/svg">
<rect y="0.273926" width="54" height="54" rx="27" fill="#D4EAFF"/>
<path d="M34.9998 32.3898C36.941 33.3649 38.6053 34.9299 39.8201 36.8868C40.0607 37.2743 40.181 37.4681 40.2225 37.7364C40.3071 38.2816 39.9342 38.952 39.4264 39.1677C39.1765 39.2739 38.8954 39.2739 38.3331 39.2739M32.3331 26.6502C34.3087 25.6684 35.6664 23.6297 35.6664 21.2739C35.6664 18.9181 34.3087 16.8794 32.3331 15.8976M29.6664 21.2739C29.6664 24.5876 26.9802 27.2739 23.6664 27.2739C20.3527 27.2739 17.6664 24.5876 17.6664 21.2739C17.6664 17.9602 20.3527 15.2739 23.6664 15.2739C26.9802 15.2739 29.6664 17.9602 29.6664 21.2739ZM14.4121 36.525C16.5378 33.3333 19.8923 31.2739 23.6664 31.2739C27.4406 31.2739 30.7951 33.3333 32.9208 36.525C33.3865 37.2243 33.6193 37.5739 33.5925 38.0205C33.5717 38.3682 33.3437 38.7939 33.0659 39.004C32.709 39.2739 32.2182 39.2739 31.2366 39.2739H16.0963C15.1147 39.2739 14.6239 39.2739 14.267 39.004C13.9892 38.7939 13.7612 38.3682 13.7404 38.0205C13.7136 37.5739 13.9464 37.2243 14.4121 36.525Z" stroke="white" stroke-width="2" stroke-linecap="round" stroke-linejoin="round"/>
</svg>
