<svg width="54" height="55" viewBox="0 0 54 55" fill="none" xmlns="http://www.w3.org/2000/svg">
<rect y="0.273926" width="54" height="54" rx="27" fill="#D4EAFF"/>
<path d="M21.4915 31.8871L20.3333 40.6072L26.4512 36.9365C26.6507 36.8168 26.7505 36.7569 26.857 36.7335C26.9512 36.7128 27.0488 36.7128 27.143 36.7335C27.2495 36.7569 27.3493 36.8168 27.5488 36.9365L33.6667 40.6072L32.5092 31.8834M32.9012 16.9391C33.1071 17.4371 33.5024 17.8329 34.0001 18.0396L35.7452 18.7625C36.2433 18.9688 36.639 19.3645 36.8453 19.8626C37.0516 20.3607 37.0516 20.9203 36.8453 21.4184L36.1229 23.1624C35.9165 23.6606 35.9162 24.2208 36.1236 24.7189L36.8447 26.4623C36.9469 26.709 36.9996 26.9735 36.9996 27.2405C36.9997 27.5075 36.9471 27.772 36.8449 28.0187C36.7427 28.2654 36.5929 28.4896 36.4041 28.6784C36.2152 28.8672 35.991 29.0169 35.7443 29.119L34.0004 29.8414C33.5023 30.0473 33.1065 30.4426 32.8998 30.9403L32.1769 32.6856C31.9707 33.1836 31.575 33.5793 31.0769 33.7857C30.5789 33.992 30.0193 33.992 29.5212 33.7857L27.7773 33.0633C27.2792 32.8575 26.7198 32.8579 26.2221 33.0644L24.4769 33.7863C23.9791 33.9921 23.42 33.992 22.9224 33.7858C22.4247 33.5797 22.0293 33.1844 21.8228 32.6869L21.0997 30.9411C20.8938 30.4431 20.4985 30.0473 20.0008 29.8406L18.2557 29.1177C17.7578 28.9115 17.3623 28.516 17.1559 28.0182C16.9495 27.5204 16.9492 26.9611 17.1551 26.4631L17.8775 24.7191C18.0833 24.221 18.0828 23.6616 17.8763 23.1638L17.155 21.4173C17.0527 21.1707 17 20.9062 17 20.6392C17 20.3721 17.0525 20.1077 17.1547 19.861C17.2569 19.6143 17.4067 19.3901 17.5956 19.2013C17.7844 19.0125 18.0086 18.8628 18.2554 18.7607L19.9993 18.0383C20.4969 17.8325 20.8925 17.4378 21.0993 16.9406L21.8222 15.1954C22.0285 14.6973 22.4242 14.3016 22.9222 14.0953C23.4203 13.889 23.9799 13.889 24.4779 14.0953L26.2218 14.8177C26.7199 15.0235 27.2793 15.023 27.7771 14.8165L29.523 14.0964C30.021 13.8902 30.5804 13.8903 31.0784 14.0965C31.5763 14.3028 31.972 14.6984 32.1783 15.1963L32.9014 16.9421L32.9012 16.9391Z" stroke="white" stroke-width="2" stroke-linecap="round" stroke-linejoin="round"/>
</svg>
