<svg width="54" height="54" viewBox="0 0 54 54" fill="none" xmlns="http://www.w3.org/2000/svg">
<rect width="54" height="54" rx="27" fill="#B7DDFF"/>
<path d="M21.4915 31.6133L20.3333 40.3334L26.4512 36.6627C26.6507 36.543 26.7505 36.4831 26.857 36.4597C26.9512 36.439 27.0488 36.439 27.143 36.4597C27.2495 36.4831 27.3493 36.543 27.5488 36.6627L33.6667 40.3334L32.5092 31.6096M32.9012 16.6653C33.1071 17.1633 33.5024 17.5591 34.0001 17.7658L35.7452 18.4887C36.2433 18.695 36.639 19.0907 36.8453 19.5888C37.0516 20.0869 37.0516 20.6465 36.8453 21.1446L36.1229 22.8886C35.9165 23.3868 35.9162 23.947 36.1236 24.4451L36.8447 26.1885C36.9469 26.4352 36.9996 26.6996 36.9996 26.9667C36.9997 27.2337 36.9471 27.4982 36.8449 27.7449C36.7427 27.9916 36.5929 28.2158 36.4041 28.4046C36.2152 28.5934 35.991 28.7431 35.7443 28.8452L34.0004 29.5676C33.5023 29.7735 33.1065 30.1688 32.8998 30.6665L32.1769 32.4118C31.9707 32.9098 31.575 33.3055 31.0769 33.5119C30.5789 33.7182 30.0193 33.7182 29.5212 33.5119L27.7773 32.7895C27.2792 32.5837 26.7198 32.5841 26.2221 32.7906L24.4769 33.5125C23.9791 33.7183 23.42 33.7182 22.9224 33.512C22.4247 33.3059 22.0293 32.9106 21.8228 32.4131L21.0997 30.6673C20.8938 30.1693 20.4985 29.7734 20.0008 29.5668L18.2557 28.8439C17.7578 28.6377 17.3623 28.2422 17.1559 27.7444C16.9495 27.2466 16.9492 26.6873 17.1551 26.1893L17.8775 24.4453C18.0833 23.9472 18.0828 23.3878 17.8763 22.89L17.155 21.1435C17.0527 20.8968 17 20.6324 17 20.3654C17 20.0983 17.0525 19.8339 17.1547 19.5872C17.2569 19.3405 17.4067 19.1163 17.5956 18.9275C17.7844 18.7387 18.0086 18.589 18.2554 18.4869L19.9993 17.7645C20.4969 17.5587 20.8925 17.1639 21.0993 16.6668L21.8222 14.9216C22.0285 14.4235 22.4242 14.0278 22.9222 13.8215C23.4203 13.6152 23.9799 13.6152 24.4779 13.8215L26.2218 14.5439C26.7199 14.7497 27.2793 14.7492 27.7771 14.5427L29.523 13.8226C30.021 13.6164 30.5804 13.6165 31.0784 13.8227C31.5763 14.029 31.972 14.4246 32.1783 14.9225L32.9014 16.6683L32.9012 16.6653Z" stroke="white" stroke-width="2" stroke-linecap="round" stroke-linejoin="round"/>
</svg>
