<svg width="48" height="49" viewBox="0 0 48 49" fill="none" xmlns="http://www.w3.org/2000/svg">
<path d="M44 42.2739V38.2739C44 34.5462 41.4505 31.414 38 30.526M31 6.85544C33.9318 8.04222 36 10.9165 36 14.2739C36 17.6313 33.9318 20.5056 31 21.6924M34 42.2739C34 38.5464 34 36.6826 33.391 35.2125C32.5791 33.2522 31.0217 31.6948 29.0615 30.8829C27.5913 30.2739 25.7275 30.2739 22 30.2739H16C12.2725 30.2739 10.4087 30.2739 8.93853 30.8829C6.97831 31.6948 5.42092 33.2522 4.60896 35.2125C4 36.6826 4 38.5464 4 42.2739M27 14.2739C27 18.6922 23.4183 22.2739 19 22.2739C14.5817 22.2739 11 18.6922 11 14.2739C11 9.85565 14.5817 6.27393 19 6.27393C23.4183 6.27393 27 9.85565 27 14.2739Z" stroke="white" stroke-width="3" stroke-linecap="round" stroke-linejoin="round"/>
</svg>
