<svg width="33" height="33" viewBox="0 0 33 33" fill="none" xmlns="http://www.w3.org/2000/svg">
<rect x="0.5" y="0.568359" width="32" height="32" rx="4" fill="white"/>
<path d="M12.3 6.56836H20.7C23.9 6.56836 26.5 9.16836 26.5 12.3684V20.7684C26.5 22.3066 25.8889 23.7819 24.8012 24.8696C23.7135 25.9573 22.2383 26.5684 20.7 26.5684H12.3C9.1 26.5684 6.5 23.9684 6.5 20.7684V12.3684C6.5 10.8301 7.11107 9.35485 8.19878 8.26714C9.28649 7.17943 10.7617 6.56836 12.3 6.56836ZM12.1 8.56836C11.1452 8.56836 10.2295 8.94764 9.55442 9.62278C8.87928 10.2979 8.5 11.2136 8.5 12.1684V20.9684C8.5 22.9584 10.11 24.5684 12.1 24.5684H20.9C21.8548 24.5684 22.7705 24.1891 23.4456 23.5139C24.1207 22.8388 24.5 21.9231 24.5 20.9684V12.1684C24.5 10.1784 22.89 8.56836 20.9 8.56836H12.1ZM21.75 10.0684C22.0815 10.0684 22.3995 10.2001 22.6339 10.4345C22.8683 10.6689 23 10.9868 23 11.3184C23 11.6499 22.8683 11.9678 22.6339 12.2022C22.3995 12.4367 22.0815 12.5684 21.75 12.5684C21.4185 12.5684 21.1005 12.4367 20.8661 12.2022C20.6317 11.9678 20.5 11.6499 20.5 11.3184C20.5 10.9868 20.6317 10.6689 20.8661 10.4345C21.1005 10.2001 21.4185 10.0684 21.75 10.0684ZM16.5 11.5684C17.8261 11.5684 19.0979 12.0951 20.0355 13.0328C20.9732 13.9705 21.5 15.2423 21.5 16.5684C21.5 17.8944 20.9732 19.1662 20.0355 20.1039C19.0979 21.0416 17.8261 21.5684 16.5 21.5684C15.1739 21.5684 13.9021 21.0416 12.9645 20.1039C12.0268 19.1662 11.5 17.8944 11.5 16.5684C11.5 15.2423 12.0268 13.9705 12.9645 13.0328C13.9021 12.0951 15.1739 11.5684 16.5 11.5684ZM16.5 13.5684C15.7044 13.5684 14.9413 13.8844 14.3787 14.447C13.8161 15.0096 13.5 15.7727 13.5 16.5684C13.5 17.364 13.8161 18.1271 14.3787 18.6897C14.9413 19.2523 15.7044 19.5684 16.5 19.5684C17.2956 19.5684 18.0587 19.2523 18.6213 18.6897C19.1839 18.1271 19.5 17.364 19.5 16.5684C19.5 15.7727 19.1839 15.0096 18.6213 14.447C18.0587 13.8844 17.2956 13.5684 16.5 13.5684Z" fill="#878787"/>
</svg>
