<svg width="41" height="41" viewBox="0 0 41 41" fill="none" xmlns="http://www.w3.org/2000/svg">
<rect x="0.5" y="0.273926" width="40" height="40" rx="20" fill="white" fill-opacity="0.2"/>
<path d="M16.3 10.2739H24.7C27.9 10.2739 30.5 12.8739 30.5 16.0739V24.4739C30.5 26.0122 29.8889 27.4874 28.8012 28.5751C27.7135 29.6629 26.2383 30.2739 24.7 30.2739H16.3C13.1 30.2739 10.5 27.6739 10.5 24.4739V16.0739C10.5 14.5357 11.1111 13.0604 12.1988 11.9727C13.2865 10.885 14.7617 10.2739 16.3 10.2739ZM16.1 12.2739C15.1452 12.2739 14.2295 12.6532 13.5544 13.3283C12.8793 14.0035 12.5 14.9191 12.5 15.8739V24.6739C12.5 26.6639 14.11 28.2739 16.1 28.2739H24.9C25.8548 28.2739 26.7705 27.8946 27.4456 27.2195C28.1207 26.5444 28.5 25.6287 28.5 24.6739V15.8739C28.5 13.8839 26.89 12.2739 24.9 12.2739H16.1ZM25.75 13.7739C26.0815 13.7739 26.3995 13.9056 26.6339 14.14C26.8683 14.3745 27 14.6924 27 15.0239C27 15.3554 26.8683 15.6734 26.6339 15.9078C26.3995 16.1422 26.0815 16.2739 25.75 16.2739C25.4185 16.2739 25.1005 16.1422 24.8661 15.9078C24.6317 15.6734 24.5 15.3554 24.5 15.0239C24.5 14.6924 24.6317 14.3745 24.8661 14.14C25.1005 13.9056 25.4185 13.7739 25.75 13.7739ZM20.5 15.2739C21.8261 15.2739 23.0979 15.8007 24.0355 16.7384C24.9732 17.6761 25.5 18.9478 25.5 20.2739C25.5 21.6 24.9732 22.8718 24.0355 23.8095C23.0979 24.7471 21.8261 25.2739 20.5 25.2739C19.1739 25.2739 17.9021 24.7471 16.9645 23.8095C16.0268 22.8718 15.5 21.6 15.5 20.2739C15.5 18.9478 16.0268 17.6761 16.9645 16.7384C17.9021 15.8007 19.1739 15.2739 20.5 15.2739ZM20.5 17.2739C19.7044 17.2739 18.9413 17.59 18.3787 18.1526C17.8161 18.7152 17.5 19.4783 17.5 20.2739C17.5 21.0696 17.8161 21.8326 18.3787 22.3952C18.9413 22.9579 19.7044 23.2739 20.5 23.2739C21.2956 23.2739 22.0587 22.9579 22.6213 22.3952C23.1839 21.8326 23.5 21.0696 23.5 20.2739C23.5 19.4783 23.1839 18.7152 22.6213 18.1526C22.0587 17.59 21.2956 17.2739 20.5 17.2739Z" fill="#D6D6D6"/>
</svg>
