<svg width="180" height="42" viewBox="0 0 180 42" fill="none" xmlns="http://www.w3.org/2000/svg">
<g clip-path="url(#clip0_1134_1548)">
<path d="M61.944 14.3063C61.944 13.4476 61.2816 12.743 60.3543 12.743C59.4271 12.743 58.7646 13.4476 58.7646 14.3063V26.9893C58.7646 27.8481 59.4271 28.5528 60.3543 28.5528C61.3036 28.5528 61.944 27.8481 61.944 26.9893V14.3063Z" fill="#878787"/>
<path d="M77.5986 12.743C76.6713 12.743 76.0309 13.4476 76.0309 14.3063V19.7231L76.1192 24.5674L74.1984 20.0312L71.6815 14.8788C70.9088 13.2714 70.0257 12.743 68.7672 12.743C66.9127 12.743 66.0957 13.91 66.0957 15.5834V26.9893C66.0957 27.8482 66.7359 28.5528 67.6633 28.5528C68.5906 28.5528 69.2308 27.8482 69.2308 26.9893L69.2088 21.6388L69.1425 16.1559L71.1958 21.1762L73.7348 26.4168C74.5297 28.0903 75.3687 28.5748 76.6491 28.5748C78.305 28.5748 79.166 27.5618 79.166 25.6903V14.3063C79.166 13.4476 78.5258 12.743 77.5986 12.743Z" fill="#878787"/>
<path d="M90.888 15.9797L94.4867 16.0678C95.3257 16.0898 95.9881 15.4513 95.9881 14.5265C95.9881 13.6017 95.3257 12.9631 94.4867 12.9631L84.0657 12.9411C83.2489 12.9411 82.5645 13.5797 82.5645 14.5045C82.5645 15.4293 83.2489 16.0678 84.0657 16.0458L87.6866 15.9797V26.9893C87.6866 27.8481 88.3488 28.5527 89.2763 28.5527C90.2255 28.5527 90.888 27.8481 90.888 26.9893V15.9797Z" fill="#878787"/>
<path d="M101.557 28.3545H109.306C110.123 28.3545 110.786 27.738 110.786 26.8792C110.786 25.9985 110.123 25.3819 109.306 25.3819L102.572 25.404V21.7267H108.401C109.196 21.7267 109.836 21.1322 109.836 20.3176C109.836 19.4808 109.196 18.8862 108.401 18.8862L102.572 18.9303V15.8917H109.306C110.123 15.8917 110.786 15.2752 110.786 14.3944C110.786 13.5136 110.123 12.9191 109.306 12.9191L101.579 12.9411C100.166 12.9411 99.3711 13.7338 99.3711 15.1431V26.1527C99.3711 27.5618 100.166 28.3545 101.557 28.3545Z" fill="#878787"/>
<path d="M123.408 22.0791C125.505 21.5286 126.742 19.8992 126.742 17.7413C126.742 15.3412 125.174 12.9411 121.421 12.9411H116.563C115.15 12.9411 114.355 13.7338 114.355 15.143V26.9893C114.355 27.8481 115.018 28.5527 115.989 28.5527C116.939 28.5527 117.623 27.8481 117.623 26.9893L117.601 22.8496H120.273L122.988 27.738C123.43 28.4867 124.357 28.7948 125.218 28.3545C126.079 27.8921 126.322 26.9672 125.858 26.2187L123.408 22.0791ZM117.601 15.8696H121.443C122.745 15.8696 123.562 16.6844 123.562 17.8954C123.562 19.0844 122.789 19.9653 121.487 19.9653H117.601V15.8696Z" fill="#878787"/>
<path d="M136.494 28.6407C139.717 28.6407 141.793 27.1875 142.499 24.8314C142.874 23.4882 142.08 22.5194 140.887 22.5194C140.159 22.5194 139.673 22.8937 139.386 23.7084C138.945 24.9415 137.863 25.7123 136.317 25.7123C133.866 25.7123 132.807 24.0607 132.807 20.6257C132.807 17.2568 133.888 15.6494 136.317 15.6494C137.841 15.6494 138.724 16.288 139.276 17.7633C139.585 18.6 140.093 18.9743 140.843 18.9743C141.991 18.9743 142.83 18.0495 142.477 16.7724C141.771 14.1742 139.717 12.7209 136.405 12.7209C131.857 12.7209 129.539 15.4953 129.539 20.6257C129.539 25.8002 131.857 28.6407 136.494 28.6407Z" fill="#878787"/>
<path d="M152.191 28.5968C156.871 28.5968 159.189 25.7341 159.189 20.6257C159.189 15.4733 156.805 12.6328 152.191 12.6328C147.554 12.6328 145.236 15.5173 145.214 20.6257C145.214 25.7561 147.576 28.5968 152.191 28.5968ZM152.191 25.6462C149.585 25.6462 148.459 23.9948 148.459 20.6257C148.459 17.2128 149.608 15.5614 152.169 15.5614C154.752 15.5614 155.966 17.2128 155.944 20.6257C155.944 24.0166 154.796 25.6462 152.191 25.6462Z" fill="#878787"/>
<path d="M179.742 15.4953C179.742 13.7558 178.66 12.7209 176.982 12.7209C175.613 12.7209 174.576 13.4695 174.068 15.187L172.368 20.7138L171.242 24.6993L170.16 20.7138L168.35 15.187C167.842 13.5796 166.959 12.7209 165.413 12.7209C163.713 12.7209 162.653 13.7338 162.653 15.4953V26.9892C162.653 27.8481 163.271 28.5527 164.177 28.5527C165.082 28.5527 165.7 27.8481 165.7 26.9892L165.678 21.4405L165.524 15.4953L167.268 21.5726L169.122 26.9452C169.52 28.1342 170.27 28.5307 171.242 28.5307C172.147 28.5307 172.876 28.2003 173.251 26.9892L175.017 21.5726L176.894 15.4513L176.717 21.4405V26.9892C176.717 27.8481 177.358 28.5527 178.241 28.5527C179.146 28.5527 179.764 27.8481 179.764 26.9892L179.742 15.4953Z" fill="#878787"/>
<path d="M35.7375 22.7064C35.7375 23.0735 35.5928 23.4253 35.3354 23.6848C35.0779 23.9442 34.7288 24.0901 34.3646 24.0901C34.0005 24.0901 33.6513 23.9442 33.3938 23.6848C33.1364 23.4253 32.9918 23.0735 32.9918 22.7064V10.3461C32.9918 9.97915 33.1364 9.62724 33.3938 9.36778C33.6513 9.10831 34.0005 8.96254 34.3646 8.96254C34.7288 8.96254 35.0779 9.10831 35.3354 9.36778C35.5928 9.62724 35.7375 9.97915 35.7375 10.3461V22.7064ZM35.2608 31.2708C35.0794 31.4536 29.974 35.7415 20.6142 35.7415C11.2544 35.7415 6.18313 31.4766 5.96758 31.2935C5.83174 31.1781 5.71984 31.0368 5.63831 30.8777C5.55678 30.7185 5.5072 30.5448 5.49245 30.3663C5.4777 30.1879 5.49803 30.0082 5.55232 29.8376C5.60659 29.6672 5.69374 29.509 5.80874 29.3726C6.04568 29.0963 6.3814 28.9257 6.7427 28.8977C7.104 28.8699 7.46156 28.9873 7.73743 29.224C7.81685 29.2812 12.3776 33.0087 20.6028 33.0087C28.8281 33.0087 33.4229 29.2583 33.4684 29.224C33.7473 28.9893 34.1061 28.8735 34.4683 28.9013C34.8306 28.9291 35.1678 29.0981 35.4083 29.3726C35.6398 29.6448 35.7553 29.9981 35.7299 30.3556C35.7044 30.7131 35.5399 31.0462 35.2722 31.2821L35.2608 31.2708ZM5.47974 10.3461C5.50025 9.978 5.66452 9.63303 5.93664 9.38665C6.20875 9.14025 6.56658 9.01244 6.93192 9.03115C7.2706 9.05054 7.59018 9.19562 7.829 9.43843C8.06784 9.68124 8.209 10.0046 8.22527 10.3461V22.6837C8.22527 23.0505 8.08064 23.4024 7.8232 23.6619C7.56575 23.9215 7.21658 24.0672 6.8525 24.0672C6.48842 24.0672 6.13926 23.9215 5.88181 23.6619C5.62437 23.4024 5.47974 23.0505 5.47974 22.6837V10.3461ZM12.3663 7.60187C12.3868 7.23377 12.5511 6.88883 12.8232 6.64244C13.0953 6.39604 13.4531 6.26823 13.8185 6.28694C14.1571 6.30633 14.4767 6.45141 14.7155 6.69422C14.9544 6.93703 15.0955 7.26036 15.1118 7.60187V25.8966C15.1118 26.2636 14.9672 26.6155 14.7097 26.8749C14.4523 27.1344 14.1031 27.2801 13.739 27.2801C13.375 27.2801 13.0258 27.1344 12.7683 26.8749C12.5109 26.6155 12.3663 26.2636 12.3663 25.8966V7.60187ZM19.2869 6.91582C19.2869 6.54888 19.4315 6.19697 19.6889 5.93752C19.9464 5.67804 20.2956 5.53227 20.6595 5.53227C21.0237 5.53227 21.3729 5.67804 21.6303 5.93752C21.8878 6.19697 22.0324 6.54888 22.0324 6.91582V26.8114C22.0324 27.1783 21.8878 27.5301 21.6303 27.7897C21.3729 28.0492 21.0237 28.1949 20.6595 28.1949C20.2956 28.1949 19.9464 28.0492 19.6889 27.7897C19.4315 27.5301 19.2869 27.1783 19.2869 26.8114V6.91582ZM26.094 7.60187C26.094 7.23494 26.2386 6.88303 26.4961 6.62356C26.7535 6.3641 27.1027 6.21833 27.4667 6.21833C27.8308 6.21833 28.18 6.3641 28.4374 6.62356C28.6949 6.88303 28.8395 7.23494 28.8395 7.60187V25.8966C28.8395 26.2636 28.6949 26.6155 28.4374 26.8749C28.18 27.1344 27.8308 27.2801 27.4667 27.2801C27.1027 27.2801 26.7535 27.1344 26.4961 26.8749C26.2386 26.6155 26.094 26.2636 26.094 25.8966V7.60187ZM36.1117 0.05529H5.16206C4.48768 0.0507722 3.81905 0.180362 3.19445 0.436638C2.56983 0.692914 2.0015 1.07085 1.522 1.54879C1.04251 2.02674 0.661266 2.5953 0.400098 3.22196C0.13893 3.8486 0.00296913 4.52101 0 5.20069V36.0732C0.00296913 36.7527 0.13893 37.4252 0.400098 38.0519C0.661266 38.6784 1.04251 39.2471 1.522 39.725C2.0015 40.2029 2.56983 40.5809 3.19445 40.8371C3.81905 41.0935 4.48768 41.2229 5.16206 41.2184H36.1117C36.7851 41.2229 37.453 41.0938 38.0767 40.8382C38.7007 40.5827 39.2685 40.2057 39.7478 39.7289C40.2272 39.2523 40.6086 38.6851 40.8704 38.0597C41.1324 37.4344 41.2694 36.7632 41.2738 36.0845V5.20069C41.2709 4.52198 41.1353 3.85051 40.8748 3.22461C40.6144 2.59871 40.2342 2.03066 39.7558 1.55285C39.2775 1.07506 38.7106 0.696888 38.0872 0.439936C37.464 0.182983 36.7965 0.0522802 36.1231 0.05529" fill="#878787"/>
</g>
<defs>
<clipPath id="clip0_1134_1548">
<rect width="180" height="41.2738" fill="white"/>
</clipPath>
</defs>
</svg>
