<svg width="41" height="41" viewBox="0 0 41 41" fill="none" xmlns="http://www.w3.org/2000/svg">
<rect x="0.5" y="0.273926" width="40" height="40" rx="20" fill="white" fill-opacity="0.2"/>
<path d="M15.4399 13.2739C15.4397 13.8044 15.2287 14.313 14.8534 14.6879C14.4782 15.0628 13.9694 15.2732 13.4389 15.2729C12.9085 15.2727 12.3999 15.0617 12.025 14.6865C11.6501 14.3112 11.4397 13.8024 11.4399 13.2719C11.4402 12.7415 11.6512 12.2329 12.0264 11.858C12.4017 11.4831 12.9105 11.2727 13.4409 11.2729C13.9714 11.2732 14.48 11.4842 14.8549 11.8594C15.2297 12.2347 15.4402 12.7435 15.4399 13.2739ZM15.4999 16.7539H11.4999V29.2739H15.4999V16.7539ZM21.8199 16.7539H17.8399V29.2739H21.7799V22.7039C21.7799 19.044 26.5499 18.7039 26.5499 22.7039V29.2739H30.4999V21.3439C30.4999 15.1739 23.4399 15.4039 21.7799 18.4339L21.8199 16.7539Z" fill="#D6D6D6"/>
</svg>
