<svg width="33" height="33" viewBox="0 0 33 33" fill="none" xmlns="http://www.w3.org/2000/svg">
<rect x="0.5" y="0.568359" width="32" height="32" rx="4" fill="white"/>
<path d="M11.4404 9.56838C11.4402 10.0988 11.2292 10.6074 10.8539 10.9823C10.4787 11.3572 9.96986 11.5676 9.43943 11.5674C8.909 11.5671 8.40039 11.3561 8.02551 10.9809C7.65062 10.6056 7.44016 10.0968 7.44043 9.56638C7.4407 9.03595 7.65166 8.52735 8.02692 8.15246C8.40218 7.77758 8.911 7.56712 9.44143 7.56738C9.97186 7.56765 10.4805 7.77862 10.8554 8.15388C11.2302 8.52914 11.4407 9.03795 11.4404 9.56838ZM11.5004 13.0484H7.50043V25.5684H11.5004V13.0484ZM17.8204 13.0484H13.8404V25.5684H17.7804V18.9984C17.7804 15.3384 22.5504 14.9984 22.5504 18.9984V25.5684H26.5004V17.6384C26.5004 11.4684 19.4404 11.6984 17.7804 14.7284L17.8204 13.0484Z" fill="#878787"/>
</svg>
