<svg width="280" height="40" viewBox="0 0 280 40" fill="none" xmlns="http://www.w3.org/2000/svg">
<path d="M30.5728 17.5547C30.0034 18.1266 29.5674 18.8169 29.2958 19.5763C29.0242 20.3357 28.9236 21.1456 29.0013 21.9482L28.9743 21.9212C29.0542 22.8661 28.9265 23.8168 28.6003 24.7073C28.2741 25.5977 27.7573 26.4064 27.0859 27.0769C26.4143 27.7472 25.6044 28.2634 24.7124 28.5889C23.8205 28.9145 22.8682 29.042 21.9219 28.9622L21.949 28.9892C20.8171 28.8841 19.6802 29.1299 18.6933 29.6935C17.7065 30.2571 16.9177 31.1107 16.4347 32.1382C15.9517 33.1657 15.7977 34.3168 15.9939 35.4349C16.1902 36.5529 16.727 37.5832 17.5313 38.3854C18.3355 39.1877 19.368 39.7227 20.4879 39.9176C21.6079 40.1126 22.7607 39.9578 23.7894 39.4746C24.8181 38.9913 25.6724 38.2032 26.236 37.2174C26.7995 36.2316 27.0449 35.0964 26.9385 33.9663L26.967 33.9933C26.8871 33.0486 27.0147 32.0977 27.3408 31.2072C27.667 30.3168 28.184 29.5081 28.8554 28.8376C29.527 28.1672 30.337 27.6511 31.2288 27.3256C32.1208 26.9999 33.073 26.8724 34.0194 26.9522L33.9908 26.9252C34.9154 27.0082 35.8462 26.8568 36.6967 26.4851C37.547 26.1134 38.2898 25.5334 38.8559 24.7988C39.4221 24.0643 39.7935 23.1988 39.9353 22.2829C40.0773 21.3668 39.9853 20.4299 39.668 19.5587C39.3507 18.6876 38.8182 17.9106 38.1201 17.2997C37.4219 16.6887 36.5805 16.2636 35.674 16.0638C34.7674 15.864 33.825 15.8958 32.934 16.1564C32.0431 16.4171 31.2326 16.898 30.5773 17.5547H30.5728Z" fill="#2798FF"/>
<path d="M19.4897 25.4525L19.4611 25.4255C20.2654 25.5064 21.0776 25.4078 21.8391 25.1369C22.6006 24.866 23.2923 24.4297 23.8641 23.8592C24.4358 23.2888 24.8736 22.5985 25.1453 21.8384C25.4173 21.0784 25.5166 20.2676 25.4362 19.4645L25.4648 19.4915C25.3848 18.5466 25.5125 17.5959 25.8386 16.7054C26.1647 15.815 26.6817 15.0063 27.3531 14.3358C28.0247 13.6655 28.8347 13.1493 29.7265 12.8238C30.6185 12.4981 31.5707 12.3707 32.5171 12.4505L32.4885 12.4235C33.6206 12.5297 34.7578 12.2845 35.7452 11.7216C36.7327 11.1587 37.5221 10.3054 38.0058 9.2781C38.4896 8.2508 38.6442 7.0995 38.4486 5.98123C38.253 4.86296 37.7166 3.83219 36.9125 3.02947C36.1086 2.22677 35.0761 1.69121 33.9561 1.49588C32.836 1.30053 31.6829 1.4549 30.6539 1.93793C29.6249 2.42095 28.7704 3.20913 28.2065 4.19495C27.6427 5.18075 27.3972 6.31621 27.5035 7.44644L27.4765 7.41794C27.5566 8.36278 27.4292 9.31369 27.1031 10.2043C26.7771 11.0949 26.2601 11.9037 25.5887 12.5742C24.9171 13.2446 24.107 13.7607 23.215 14.0862C22.3229 14.4117 21.3705 14.5389 20.4242 14.459L20.4512 14.4875C19.647 14.4066 18.8346 14.5052 18.0732 14.7761C17.3118 15.0468 16.62 15.4833 16.0482 16.0538C15.4764 16.6242 15.0388 17.3145 14.7668 18.0746C14.495 18.8346 14.3957 19.6454 14.4761 20.4485L14.4491 20.4215C14.5287 21.3662 14.4008 22.3169 14.0747 23.2073C13.7483 24.0976 13.2315 24.9062 12.5601 25.5766C11.8886 26.2469 11.0787 26.7629 10.187 27.0887C9.29518 27.4144 8.34297 27.542 7.39673 27.4625L7.42378 27.4895C6.29174 27.3833 5.15446 27.6284 4.16705 28.1914C3.17967 28.7544 2.39023 29.6076 1.90643 30.6349C1.42263 31.6623 1.268 32.8135 1.46366 33.9318C1.65932 35.05 2.19574 36.0808 2.99973 36.8835C3.80373 37.6863 4.83616 38.2218 5.95622 38.4171C7.07628 38.6124 8.22943 38.4581 9.25839 37.9751C10.2873 37.492 11.142 36.7039 11.7058 35.7181C12.2697 34.7322 12.5152 33.5968 12.4088 32.4666L12.4373 32.4936C12.3574 31.5487 12.4851 30.598 12.8113 29.7075C13.1373 28.8171 13.6543 28.0084 14.3257 27.3379C14.9973 26.6675 15.8072 26.1514 16.6991 25.8259C17.5911 25.5002 18.5433 25.3727 19.4897 25.4525Z" fill="#2798FF"/>
<path d="M9.41998 22.4418C9.98942 21.87 10.4254 21.1797 10.6968 20.4203C10.9682 19.6608 11.0683 18.8508 10.99 18.0483L11.0185 18.0753C10.9386 17.1303 11.0662 16.1791 11.3926 15.2884C11.7189 14.3977 12.2361 13.5889 12.908 12.9184C13.5799 12.2479 14.3901 11.732 15.2824 11.4065C16.1747 11.0811 17.1274 10.954 18.0739 11.0343L18.0453 11.0073C19.177 11.1131 20.3138 10.8679 21.3008 10.305C22.2877 9.74217 23.0766 8.88907 23.5602 7.86209C24.0437 6.83509 24.1982 5.68421 24.0026 4.56636C23.8069 3.44851 23.2706 2.41812 22.4669 1.61571C21.6633 0.813294 20.6311 0.277911 19.5115 0.0825803C18.3919 -0.112766 17.2391 0.0414651 16.2106 0.524198C15.1819 1.00693 14.3275 1.79469 13.7638 2.78004C13.1999 3.7654 12.9543 4.9004 13.0603 6.03023L13.0333 6.00323C13.1132 6.94801 12.9855 7.89882 12.6593 8.78929C12.3332 9.67975 11.8164 10.4884 11.1448 11.1589C10.4733 11.8293 9.66335 12.3454 8.77146 12.6709C7.87957 12.9966 6.92725 13.1241 5.98096 13.0443L6.008 13.0713C5.08337 12.9885 4.15276 13.1401 3.30242 13.512C2.45209 13.8838 1.70952 14.464 1.14355 15.1987C0.577571 15.9333 0.206505 16.7988 0.0647073 17.7147C-0.0770754 18.6307 0.0150075 19.5677 0.332422 20.4386C0.649837 21.3096 1.18234 22.0865 1.88055 22.6973C2.57877 23.3082 3.42012 23.7332 4.32665 23.933C5.23316 24.1326 6.17552 24.1007 7.0664 23.8401C7.95727 23.5794 8.76783 23.0985 9.42297 22.4418H9.41998Z" fill="#2798FF"/>
<path d="M65.056 11.748V14.46H60.592V28.5H57.232V14.46H52.768V11.748H65.056ZM66.6436 21.804C66.6436 20.46 66.9076 19.268 67.4356 18.228C67.9796 17.188 68.7076 16.388 69.6196 15.828C70.5476 15.268 71.5796 14.988 72.7156 14.988C73.7076 14.988 74.5716 15.188 75.3076 15.588C76.0596 15.988 76.6596 16.492 77.1076 17.1V15.204H80.4916V28.5H77.1076V26.556C76.6756 27.18 76.0756 27.7 75.3076 28.116C74.5556 28.516 73.6836 28.716 72.6916 28.716C71.5716 28.716 70.5476 28.428 69.6196 27.852C68.7076 27.276 67.9796 26.468 67.4356 25.428C66.9076 24.372 66.6436 23.164 66.6436 21.804ZM77.1076 21.852C77.1076 21.036 76.9476 20.34 76.6276 19.764C76.3076 19.172 75.8756 18.724 75.3316 18.42C74.7876 18.1 74.2036 17.94 73.5796 17.94C72.9556 17.94 72.3796 18.092 71.8516 18.396C71.3236 18.7 70.8916 19.148 70.5556 19.74C70.2356 20.316 70.0756 21.004 70.0756 21.804C70.0756 22.604 70.2356 23.308 70.5556 23.916C70.8916 24.508 71.3236 24.964 71.8516 25.284C72.3956 25.604 72.9716 25.764 73.5796 25.764C74.2036 25.764 74.7876 25.612 75.3316 25.308C75.8756 24.988 76.3076 24.54 76.6276 23.964C76.9476 23.372 77.1076 22.668 77.1076 21.852ZM88.8612 28.716C87.7732 28.716 86.7972 28.524 85.9332 28.14C85.0692 27.74 84.3812 27.204 83.8692 26.532C83.3732 25.86 83.1012 25.116 83.0532 24.3H86.4372C86.5012 24.812 86.7492 25.236 87.1812 25.572C87.6292 25.908 88.1812 26.076 88.8372 26.076C89.4772 26.076 89.9732 25.948 90.3252 25.692C90.6932 25.436 90.8772 25.108 90.8772 24.708C90.8772 24.276 90.6532 23.956 90.2052 23.748C89.7732 23.524 89.0772 23.284 88.1172 23.028C87.1252 22.788 86.3092 22.54 85.6692 22.284C85.0452 22.028 84.5012 21.636 84.0372 21.108C83.5892 20.58 83.3652 19.868 83.3652 18.972C83.3652 18.236 83.5732 17.564 83.9892 16.956C84.4212 16.348 85.0292 15.868 85.8132 15.516C86.6132 15.164 87.5492 14.988 88.6212 14.988C90.2052 14.988 91.4692 15.388 92.4132 16.188C93.3572 16.972 93.8772 18.036 93.9732 19.38H90.7572C90.7092 18.852 90.4852 18.436 90.0852 18.132C89.7012 17.812 89.1812 17.652 88.5252 17.652C87.9172 17.652 87.4452 17.764 87.1092 17.988C86.7892 18.212 86.6292 18.524 86.6292 18.924C86.6292 19.372 86.8532 19.716 87.3012 19.956C87.7492 20.18 88.4452 20.412 89.3892 20.652C90.3492 20.892 91.1412 21.14 91.7652 21.396C92.3892 21.652 92.9252 22.052 93.3732 22.596C93.8372 23.124 94.0772 23.828 94.0932 24.708C94.0932 25.476 93.8772 26.164 93.4452 26.772C93.0292 27.38 92.4212 27.86 91.6212 28.212C90.8372 28.548 89.9172 28.716 88.8612 28.716ZM104.723 28.5L100.211 22.836V28.5H96.8513V10.74H100.211V20.844L104.675 15.204H109.043L103.187 21.876L109.091 28.5H104.723ZM116.075 14.988C117.067 14.988 117.939 15.188 118.691 15.588C119.443 15.972 120.035 16.476 120.467 17.1V15.204H123.851V28.596C123.851 29.828 123.603 30.924 123.107 31.884C122.611 32.86 121.867 33.628 120.875 34.188C119.883 34.764 118.683 35.052 117.275 35.052C115.387 35.052 113.835 34.612 112.619 33.732C111.419 32.852 110.739 31.652 110.579 30.132H113.915C114.091 30.74 114.467 31.22 115.043 31.572C115.635 31.94 116.347 32.124 117.179 32.124C118.155 32.124 118.947 31.828 119.555 31.236C120.163 30.66 120.467 29.78 120.467 28.596V26.532C120.035 27.156 119.435 27.676 118.667 28.092C117.915 28.508 117.051 28.716 116.075 28.716C114.955 28.716 113.931 28.428 113.003 27.852C112.075 27.276 111.339 26.468 110.795 25.428C110.267 24.372 110.003 23.164 110.003 21.804C110.003 20.46 110.267 19.268 110.795 18.228C111.339 17.188 112.067 16.388 112.979 15.828C113.907 15.268 114.939 14.988 116.075 14.988ZM120.467 21.852C120.467 21.036 120.307 20.34 119.987 19.764C119.667 19.172 119.235 18.724 118.691 18.42C118.147 18.1 117.563 17.94 116.939 17.94C116.315 17.94 115.739 18.092 115.211 18.396C114.683 18.7 114.251 19.148 113.915 19.74C113.595 20.316 113.435 21.004 113.435 21.804C113.435 22.604 113.595 23.308 113.915 23.916C114.251 24.508 114.683 24.964 115.211 25.284C115.755 25.604 116.331 25.764 116.939 25.764C117.563 25.764 118.147 25.612 118.691 25.308C119.235 24.988 119.667 24.54 119.987 23.964C120.307 23.372 120.467 22.668 120.467 21.852ZM126.269 21.804C126.269 20.46 126.533 19.268 127.061 18.228C127.605 17.188 128.333 16.388 129.245 15.828C130.173 15.268 131.205 14.988 132.341 14.988C133.333 14.988 134.197 15.188 134.933 15.588C135.685 15.988 136.285 16.492 136.733 17.1V15.204H140.117V28.5H136.733V26.556C136.301 27.18 135.701 27.7 134.933 28.116C134.181 28.516 133.309 28.716 132.317 28.716C131.197 28.716 130.173 28.428 129.245 27.852C128.333 27.276 127.605 26.468 127.061 25.428C126.533 24.372 126.269 23.164 126.269 21.804ZM136.733 21.852C136.733 21.036 136.573 20.34 136.253 19.764C135.933 19.172 135.501 18.724 134.957 18.42C134.413 18.1 133.829 17.94 133.205 17.94C132.581 17.94 132.005 18.092 131.477 18.396C130.949 18.7 130.517 19.148 130.181 19.74C129.861 20.316 129.701 21.004 129.701 21.804C129.701 22.604 129.861 23.308 130.181 23.916C130.517 24.508 130.949 24.964 131.477 25.284C132.021 25.604 132.597 25.764 133.205 25.764C133.829 25.764 134.413 25.612 134.957 25.308C135.501 24.988 135.933 24.54 136.253 23.964C136.573 23.372 136.733 22.668 136.733 21.852ZM145.102 13.62C144.51 13.62 144.014 13.436 143.614 13.068C143.23 12.684 143.038 12.212 143.038 11.652C143.038 11.092 143.23 10.628 143.614 10.26C144.014 9.876 144.51 9.684 145.102 9.684C145.694 9.684 146.182 9.876 146.566 10.26C146.966 10.628 147.166 11.092 147.166 11.652C147.166 12.212 146.966 12.684 146.566 13.068C146.182 13.436 145.694 13.62 145.102 13.62ZM146.758 15.204V28.5H143.398V15.204H146.758ZM157.446 15.012C159.03 15.012 160.31 15.516 161.286 16.524C162.262 17.516 162.75 18.908 162.75 20.7V28.5H159.39V21.156C159.39 20.1 159.126 19.292 158.598 18.732C158.07 18.156 157.35 17.868 156.438 17.868C155.51 17.868 154.774 18.156 154.23 18.732C153.702 19.292 153.438 20.1 153.438 21.156V28.5H150.078V15.204H153.438V16.86C153.886 16.284 154.454 15.836 155.142 15.516C155.846 15.18 156.614 15.012 157.446 15.012Z" fill="#403A3A"/>
</svg>
