<svg width="263" height="65" viewBox="0 0 263 65" fill="none" xmlns="http://www.w3.org/2000/svg">
<path d="M44.6018 30.0017C44.0039 30.6022 43.5461 31.327 43.2609 32.1243C42.9757 32.9217 42.8702 33.772 42.9517 34.6148L42.9233 34.5864C43.0073 35.5785 42.8732 36.5768 42.5307 37.5118C42.1882 38.4467 41.6455 39.2958 40.9406 39.9998C40.2354 40.7037 39.385 41.2456 38.4484 41.5874C37.512 41.9293 36.512 42.0632 35.5185 41.9794L35.5469 42.0078C34.3584 41.8974 33.1647 42.1555 32.1284 42.7472C31.0923 43.339 30.2641 44.2353 29.7569 45.3141C29.2498 46.393 29.0881 47.6017 29.2941 48.7757C29.5003 49.9495 30.0639 51.0314 30.9084 51.8737C31.7528 52.716 32.8369 53.2778 34.0128 53.4823C35.1888 53.6871 36.3992 53.5246 37.4793 53.0173C38.5595 52.5098 39.4564 51.6823 40.0482 50.6472C40.6399 49.6121 40.8975 48.4202 40.7858 47.2336L40.8158 47.2619C40.7318 46.27 40.8658 45.2716 41.2083 44.3366C41.5507 43.4016 42.0936 42.5526 42.7985 41.8485C43.5037 41.1447 44.3541 40.6027 45.2905 40.261C46.2271 39.919 47.2269 39.7852 48.2206 39.8689L48.1906 39.8406C49.1614 39.9277 50.1387 39.7688 51.0317 39.3785C51.9246 38.9882 52.7045 38.3792 53.2989 37.6079C53.8933 36.8366 54.2833 35.9279 54.4322 34.9662C54.5813 34.0043 54.4848 33.0206 54.1516 32.1058C53.8184 31.1912 53.2593 30.3754 52.5263 29.7339C51.7932 29.0924 50.9098 28.6461 49.9579 28.4363C49.0061 28.2265 48.0165 28.2599 47.081 28.5334C46.1456 28.8072 45.2945 29.3121 44.6065 30.0017H44.6018Z" fill="#101010"/>
<path d="M32.9648 38.2918L32.9348 38.2635C33.7792 38.3484 34.632 38.2449 35.4317 37.9605C36.2312 37.676 36.9574 37.2179 37.5578 36.6189C38.1581 36.0199 38.6178 35.2951 38.9032 34.4971C39.1887 33.699 39.293 32.8477 39.2086 32.0045L39.2385 32.0328C39.1546 31.0408 39.2887 30.0425 39.631 29.1075C39.9735 28.1725 40.5163 27.3235 41.2213 26.6195C41.9265 25.9156 42.7769 25.3736 43.7133 25.0319C44.6499 24.6899 45.6497 24.5561 46.6434 24.6399L46.6134 24.6115C47.8021 24.723 48.9961 24.4656 50.0328 23.8746C51.0697 23.2835 51.8985 22.3876 52.4065 21.3089C52.9145 20.2303 53.0768 19.0214 52.8714 17.8472C52.666 16.6731 52.1028 15.5908 51.2585 14.7479C50.4144 13.9051 49.3303 13.3428 48.1543 13.1377C46.9783 12.9326 45.7675 13.0947 44.6871 13.6018C43.6067 14.109 42.7094 14.9366 42.1173 15.9717C41.5253 17.0068 41.2675 18.199 41.3792 19.3857L41.3508 19.3558C41.4349 20.3478 41.3011 21.3463 40.9588 22.2814C40.6165 23.2165 40.0737 24.0657 39.3687 24.7698C38.6635 25.4736 37.8129 26.0156 36.8764 26.3574C35.9396 26.6991 34.9396 26.8327 33.946 26.7488L33.9744 26.7787C33.1299 26.6938 32.277 26.7973 31.4775 27.0817C30.678 27.366 29.9517 27.8243 29.3513 28.4233C28.7509 29.0223 28.2914 29.7471 28.0059 30.5451C27.7205 31.3432 27.6162 32.1944 27.7006 33.0377L27.6722 33.0093C27.7558 34.0013 27.6216 34.9995 27.2791 35.9344C26.9365 36.8692 26.3938 37.7182 25.6888 38.4221C24.9838 39.126 24.1334 39.6677 23.1971 40.0098C22.2607 40.3518 21.2609 40.4858 20.2674 40.4023L20.2958 40.4307C19.1071 40.3192 17.913 40.5765 16.8763 41.1676C15.8395 41.7587 15.0106 42.6546 14.5026 43.7333C13.9946 44.812 13.8323 46.0208 14.0377 47.1949C14.2432 48.3691 14.8064 49.4514 15.6506 50.2942C16.4948 51.1371 17.5788 51.6994 18.7548 51.9045C19.9309 52.1095 21.1417 51.9475 22.2221 51.4403C23.3025 50.9332 24.1999 50.1057 24.7918 49.0706C25.3839 48.0353 25.6416 46.8432 25.5299 45.6565L25.5599 45.6848C25.476 44.6927 25.6101 43.6945 25.9526 42.7594C26.2949 41.8245 26.8377 40.9755 27.5427 40.2714C28.2478 39.5676 29.0983 39.0256 30.0347 38.6839C30.9713 38.3419 31.9711 38.208 32.9648 38.2918Z" fill="#101010"/>
<path d="M22.3908 35.1322C22.9887 34.5318 23.4465 33.807 23.7315 33.0096C24.0164 32.2122 24.1216 31.3617 24.0393 30.519L24.0693 30.5474C23.9854 29.5552 24.1194 28.5564 24.4621 27.6212C24.8047 26.686 25.3477 25.8368 26.0532 25.1327C26.7587 24.4288 27.6094 23.887 28.5463 23.5453C29.4832 23.2036 30.4835 23.0702 31.4773 23.1544L31.4473 23.1261C32.6355 23.2372 33.8292 22.9797 34.8655 22.3887C35.9018 21.7977 36.7301 20.902 37.2379 19.8237C37.7456 18.7453 37.9077 17.5369 37.7023 16.3632C37.4969 15.1895 36.9338 14.1076 36.09 13.2651C35.2461 12.4225 34.1624 11.8604 32.9868 11.6553C31.8113 11.4502 30.6008 11.6121 29.5209 12.119C28.4408 12.6259 27.5436 13.453 26.9517 14.4876C26.3597 15.5222 26.1018 16.7139 26.2132 17.9002L26.1848 17.8719C26.2687 18.8639 26.1346 19.8622 25.7921 20.7972C25.4496 21.7322 24.907 22.5813 24.2019 23.2852C23.4969 23.9892 22.6464 24.531 21.7099 24.8729C20.7734 25.2148 19.7735 25.3487 18.7799 25.2649L18.8083 25.2932C17.8375 25.2063 16.8603 25.3655 15.9675 25.756C15.0747 26.1464 14.295 26.7556 13.7007 27.527C13.1064 28.2983 12.7168 29.2071 12.5679 30.1688C12.4191 31.1306 12.5158 32.1143 12.849 33.0288C13.1823 33.9434 13.7414 34.7591 14.4746 35.4004C15.2077 36.0419 16.0911 36.4881 17.0429 36.6979C17.9947 36.9075 18.9842 36.874 19.9196 36.6004C20.855 36.3266 21.7061 35.8217 22.394 35.1322H22.3908Z" fill="#101010"/>
<path d="M84.26 18.6484V23.1684H76.82V46.5684H71.22V23.1684H63.78V18.6484H84.26ZM86.9059 35.4084C86.9059 33.1684 87.3459 31.1817 88.2259 29.4484C89.1326 27.715 90.3459 26.3817 91.8659 25.4484C93.4126 24.515 95.1326 24.0484 97.0259 24.0484C98.6793 24.0484 100.119 24.3817 101.346 25.0484C102.599 25.715 103.599 26.555 104.346 27.5684V24.4084H109.986V46.5684H104.346V43.3284C103.626 44.3684 102.626 45.235 101.346 45.9284C100.093 46.595 98.6393 46.9284 96.9859 46.9284C95.1193 46.9284 93.4126 46.4484 91.8659 45.4884C90.3459 44.5284 89.1326 43.1817 88.2259 41.4484C87.3459 39.6884 86.9059 37.675 86.9059 35.4084ZM104.346 35.4884C104.346 34.1284 104.079 32.9684 103.546 32.0084C103.013 31.0217 102.293 30.275 101.386 29.7684C100.479 29.235 99.5059 28.9684 98.4659 28.9684C97.4259 28.9684 96.4659 29.2217 95.5859 29.7284C94.7059 30.235 93.9859 30.9817 93.4259 31.9684C92.8926 32.9284 92.6259 34.075 92.6259 35.4084C92.6259 36.7417 92.8926 37.915 93.4259 38.9284C93.9859 39.915 94.7059 40.675 95.5859 41.2084C96.4926 41.7417 97.4526 42.0084 98.4659 42.0084C99.5059 42.0084 100.479 41.755 101.386 41.2484C102.293 40.715 103.013 39.9684 103.546 39.0084C104.079 38.0217 104.346 36.8484 104.346 35.4884ZM123.935 46.9284C122.122 46.9284 120.495 46.6084 119.055 45.9684C117.615 45.3017 116.469 44.4084 115.615 43.2884C114.789 42.1684 114.335 40.9284 114.255 39.5684H119.895C120.002 40.4217 120.415 41.1284 121.135 41.6884C121.882 42.2484 122.802 42.5284 123.895 42.5284C124.962 42.5284 125.789 42.315 126.375 41.8884C126.989 41.4617 127.295 40.915 127.295 40.2484C127.295 39.5284 126.922 38.995 126.175 38.6484C125.455 38.275 124.295 37.875 122.695 37.4484C121.042 37.0484 119.682 36.635 118.615 36.2084C117.575 35.7817 116.669 35.1284 115.895 34.2484C115.149 33.3684 114.775 32.1817 114.775 30.6884C114.775 29.4617 115.122 28.3417 115.815 27.3284C116.535 26.315 117.549 25.515 118.855 24.9284C120.189 24.3417 121.749 24.0484 123.535 24.0484C126.175 24.0484 128.282 24.715 129.855 26.0484C131.429 27.355 132.295 29.1284 132.455 31.3684H127.095C127.015 30.4884 126.642 29.795 125.975 29.2884C125.335 28.755 124.469 28.4884 123.375 28.4884C122.362 28.4884 121.575 28.675 121.015 29.0484C120.482 29.4217 120.215 29.9417 120.215 30.6084C120.215 31.355 120.589 31.9284 121.335 32.3284C122.082 32.7017 123.242 33.0884 124.815 33.4884C126.415 33.8884 127.735 34.3017 128.775 34.7284C129.815 35.155 130.709 35.8217 131.455 36.7284C132.229 37.6084 132.629 38.7817 132.655 40.2484C132.655 41.5284 132.295 42.675 131.575 43.6884C130.882 44.7017 129.869 45.5017 128.535 46.0884C127.229 46.6484 125.695 46.9284 123.935 46.9284ZM150.372 46.5684L142.852 37.1284V46.5684H137.252V16.9684H142.852V33.8084L150.292 24.4084H157.572L147.812 35.5284L157.652 46.5684H150.372ZM169.292 24.0484C170.945 24.0484 172.398 24.3817 173.652 25.0484C174.905 25.6884 175.892 26.5284 176.612 27.5684V24.4084H182.252V46.7284C182.252 48.7817 181.838 50.6084 181.012 52.2084C180.185 53.835 178.945 55.115 177.292 56.0484C175.638 57.0084 173.638 57.4884 171.292 57.4884C168.145 57.4884 165.558 56.755 163.532 55.2884C161.532 53.8217 160.398 51.8217 160.132 49.2884H165.692C165.985 50.3017 166.612 51.1017 167.572 51.6884C168.558 52.3017 169.745 52.6084 171.132 52.6084C172.758 52.6084 174.078 52.115 175.092 51.1284C176.105 50.1684 176.612 48.7017 176.612 46.7284V43.2884C175.892 44.3284 174.892 45.195 173.612 45.8884C172.358 46.5817 170.918 46.9284 169.292 46.9284C167.425 46.9284 165.718 46.4484 164.172 45.4884C162.625 44.5284 161.398 43.1817 160.492 41.4484C159.612 39.6884 159.172 37.675 159.172 35.4084C159.172 33.1684 159.612 31.1817 160.492 29.4484C161.398 27.715 162.612 26.3817 164.132 25.4484C165.678 24.515 167.398 24.0484 169.292 24.0484ZM176.612 35.4884C176.612 34.1284 176.345 32.9684 175.812 32.0084C175.278 31.0217 174.558 30.275 173.652 29.7684C172.745 29.235 171.772 28.9684 170.732 28.9684C169.692 28.9684 168.732 29.2217 167.852 29.7284C166.972 30.235 166.252 30.9817 165.692 31.9684C165.158 32.9284 164.892 34.075 164.892 35.4084C164.892 36.7417 165.158 37.915 165.692 38.9284C166.252 39.915 166.972 40.675 167.852 41.2084C168.758 41.7417 169.718 42.0084 170.732 42.0084C171.772 42.0084 172.745 41.755 173.652 41.2484C174.558 40.715 175.278 39.9684 175.812 39.0084C176.345 38.0217 176.612 36.8484 176.612 35.4884ZM186.281 35.4084C186.281 33.1684 186.721 31.1817 187.601 29.4484C188.508 27.715 189.721 26.3817 191.241 25.4484C192.788 24.515 194.508 24.0484 196.401 24.0484C198.054 24.0484 199.494 24.3817 200.721 25.0484C201.974 25.715 202.974 26.555 203.721 27.5684V24.4084H209.361V46.5684H203.721V43.3284C203.001 44.3684 202.001 45.235 200.721 45.9284C199.468 46.595 198.014 46.9284 196.361 46.9284C194.494 46.9284 192.788 46.4484 191.241 45.4884C189.721 44.5284 188.508 43.1817 187.601 41.4484C186.721 39.6884 186.281 37.675 186.281 35.4084ZM203.721 35.4884C203.721 34.1284 203.454 32.9684 202.921 32.0084C202.388 31.0217 201.668 30.275 200.761 29.7684C199.854 29.235 198.881 28.9684 197.841 28.9684C196.801 28.9684 195.841 29.2217 194.961 29.7284C194.081 30.235 193.361 30.9817 192.801 31.9684C192.268 32.9284 192.001 34.075 192.001 35.4084C192.001 36.7417 192.268 37.915 192.801 38.9284C193.361 39.915 194.081 40.675 194.961 41.2084C195.868 41.7417 196.828 42.0084 197.841 42.0084C198.881 42.0084 199.854 41.755 200.761 41.2484C201.668 40.715 202.388 39.9684 202.921 39.0084C203.454 38.0217 203.721 36.8484 203.721 35.4884ZM217.67 21.7684C216.684 21.7684 215.857 21.4617 215.19 20.8484C214.55 20.2084 214.23 19.4217 214.23 18.4884C214.23 17.555 214.55 16.7817 215.19 16.1684C215.857 15.5284 216.684 15.2084 217.67 15.2084C218.657 15.2084 219.47 15.5284 220.11 16.1684C220.777 16.7817 221.11 17.555 221.11 18.4884C221.11 19.4217 220.777 20.2084 220.11 20.8484C219.47 21.4617 218.657 21.7684 217.67 21.7684ZM220.43 24.4084V46.5684H214.83V24.4084H220.43ZM238.243 24.0884C240.883 24.0884 243.016 24.9284 244.643 26.6084C246.27 28.2617 247.083 30.5817 247.083 33.5684V46.5684H241.483V34.3284C241.483 32.5684 241.043 31.2217 240.163 30.2884C239.283 29.3284 238.083 28.8484 236.563 28.8484C235.016 28.8484 233.79 29.3284 232.883 30.2884C232.003 31.2217 231.563 32.5684 231.563 34.3284V46.5684H225.963V24.4084H231.563V27.1684C232.31 26.2084 233.256 25.4617 234.403 24.9284C235.576 24.3684 236.856 24.0884 238.243 24.0884Z" fill="#101010"/>
</svg>
