<svg width="263" height="65" viewBox="0 0 263 65" fill="none" xmlns="http://www.w3.org/2000/svg">
<path d="M44.6016 29.707C44.0037 30.3075 43.5459 31.0323 43.2607 31.8296C42.9755 32.627 42.8699 33.4773 42.9515 34.3201L42.9231 34.2918C43.007 35.2838 42.8729 36.2821 42.5304 37.2171C42.188 38.1521 41.6453 39.0011 40.9403 39.7052C40.2352 40.409 39.3847 40.951 38.4482 41.2927C37.5117 41.6347 36.5118 41.7685 35.5182 41.6848L35.5466 41.7131C34.3581 41.6027 33.1644 41.8608 32.1282 42.4526C31.0921 43.0443 30.2639 43.9406 29.7567 45.0195C29.2495 46.0983 29.0878 47.307 29.2939 48.481C29.5 49.6548 30.0637 50.7367 30.9081 51.579C31.7526 52.4213 32.8366 52.9831 34.0125 53.1877C35.1885 53.3924 36.399 53.2299 37.4791 52.7226C38.5592 52.2151 39.4562 51.3876 40.0479 50.3525C40.6396 49.3175 40.8972 48.1255 40.7856 46.9389L40.8155 46.9673C40.7316 45.9753 40.8655 44.9769 41.208 44.0419C41.5505 43.107 42.0933 42.2579 42.7983 41.5539C43.5035 40.85 44.3539 40.3081 45.2903 39.9663C46.2269 39.6244 47.2267 39.4905 48.2204 39.5743L48.1904 39.5459C49.1612 39.633 50.1385 39.4741 51.0315 39.0838C51.9244 38.6935 52.7043 38.0845 53.2987 37.3132C53.8931 36.5419 54.2831 35.6332 54.432 34.6715C54.5811 33.7096 54.4845 32.7259 54.1513 31.8112C53.8182 30.8966 53.2591 30.0807 52.526 29.4392C51.793 28.7977 50.9096 28.3514 49.9577 28.1416C49.0058 27.9318 48.0162 27.9652 47.0808 28.2388C46.1453 28.5125 45.2942 29.0174 44.6063 29.707H44.6016Z" fill="white"/>
<path d="M32.9653 37.9974L32.9353 37.9691C33.7797 38.0539 34.6325 37.9505 35.4322 37.666C36.2316 37.3816 36.9579 36.9234 37.5583 36.3245C38.1586 35.7255 38.6183 35.0007 38.9036 34.2026C39.1892 33.4046 39.2934 32.5533 39.209 31.7101L39.239 31.7384C39.1551 30.7463 39.2892 29.7481 39.6315 28.813C39.974 27.8781 40.5168 27.029 41.2218 26.325C41.9269 25.6212 42.7774 25.0792 43.7138 24.7374C44.6504 24.3954 45.6502 24.2617 46.6439 24.3454L46.6139 24.3171C47.8025 24.4286 48.9966 24.1712 50.0333 23.5801C51.0702 22.9891 51.899 22.0931 52.407 21.0145C52.9149 19.9358 53.0773 18.727 52.8719 17.5528C52.6665 16.3786 52.1033 15.2963 51.259 14.4535C50.4149 13.6107 49.3308 13.0483 48.1548 12.8433C46.9788 12.6381 45.768 12.8002 44.6876 13.3074C43.6071 13.8146 42.7099 14.6421 42.1178 15.6772C41.5258 16.7123 41.268 17.9045 41.3797 19.0913L41.3513 19.0613C41.4354 20.0534 41.3016 21.0518 40.9593 21.987C40.617 22.9221 40.0742 23.7713 39.3692 24.4754C38.664 25.1792 37.8134 25.7212 36.8769 26.0629C35.9401 26.4047 34.9401 26.5383 33.9465 26.4543L33.9749 26.4842C33.1304 26.3994 32.2775 26.5028 31.478 26.7873C30.6785 27.0716 29.9522 27.5299 29.3518 28.1289C28.7514 28.7278 28.2919 29.4526 28.0063 30.2507C27.721 31.0487 27.6167 31.9 27.7011 32.7432L27.6727 32.7149C27.7563 33.7068 27.6221 34.7051 27.2796 35.64C26.9369 36.5747 26.3943 37.4238 25.6893 38.1277C24.9842 38.8315 24.1339 39.3733 23.1975 39.7154C22.2612 40.0573 21.2614 40.1914 20.2679 40.1079L20.2963 40.1362C19.1076 40.0247 17.9135 40.2821 16.8767 40.8732C15.84 41.4643 15.0111 42.3601 14.5031 43.4388C13.9951 44.5175 13.8328 45.7263 14.0382 46.9005C14.2437 48.0746 14.8069 49.157 15.6511 49.9998C16.4953 50.8427 17.5793 51.405 18.7553 51.61C19.9314 51.8151 21.1422 51.653 22.2226 51.1459C23.3029 50.6387 24.2003 49.8112 24.7923 48.7761C25.3844 47.7409 25.6421 46.5488 25.5304 45.362L25.5604 45.3904C25.4765 44.3983 25.6106 43.4001 25.9531 42.465C26.2954 41.5301 26.8382 40.681 27.5432 39.977C28.2483 39.2731 29.0988 38.7312 30.0352 38.3894C30.9717 38.0475 31.9716 37.9136 32.9653 37.9974Z" fill="white"/>
<path d="M22.3908 34.8375C22.9887 34.2371 23.4465 33.5123 23.7315 32.7149C24.0164 31.9175 24.1216 31.067 24.0393 30.2244L24.0693 30.2527C23.9854 29.2605 24.1194 28.2618 24.4621 27.3265C24.8047 26.3913 25.3477 25.5421 26.0532 24.8381C26.7587 24.1341 27.6094 23.5923 28.5463 23.2506C29.4832 22.9089 30.4835 22.7755 31.4773 22.8597L31.4473 22.8314C32.6355 22.9425 33.8292 22.685 34.8655 22.094C35.9018 21.503 36.7301 20.6073 37.2379 19.529C37.7456 18.4507 37.9077 17.2423 37.7023 16.0685C37.4969 14.8948 36.9338 13.8129 36.09 12.9704C35.2461 12.1279 34.1624 11.5657 32.9868 11.3606C31.8113 11.1555 30.6008 11.3175 29.5209 11.8243C28.4408 12.3312 27.5436 13.1583 26.9517 14.1929C26.3597 15.2275 26.1018 16.4193 26.2132 17.6056L26.1848 17.5772C26.2687 18.5692 26.1346 19.5676 25.7921 20.5025C25.4496 21.4375 24.907 22.2866 24.2019 22.9906C23.4969 23.6945 22.6464 24.2364 21.7099 24.5782C20.7734 24.9201 19.7735 25.054 18.7799 24.9702L18.8083 24.9986C17.8375 24.9116 16.8603 25.0709 15.9675 25.4613C15.0747 25.8517 14.295 26.4609 13.7007 27.2324C13.1064 28.0036 12.7168 28.9124 12.5679 29.8741C12.4191 30.8359 12.5158 31.8197 12.849 32.7341C13.1823 33.6487 13.7414 34.4644 14.4746 35.1057C15.2077 35.7472 16.0911 36.1934 17.0429 36.4032C17.9947 36.6128 18.9842 36.5793 19.9196 36.3057C20.855 36.032 21.7061 35.527 22.394 34.8375H22.3908Z" fill="white"/>
<path d="M84.26 18.3539V22.8739H76.82V46.2739H71.22V22.8739H63.78V18.3539H84.26ZM86.9059 35.1139C86.9059 32.8739 87.3459 30.8873 88.2259 29.1539C89.1326 27.4206 90.3459 26.0873 91.8659 25.1539C93.4126 24.2206 95.1326 23.7539 97.0259 23.7539C98.6793 23.7539 100.119 24.0873 101.346 24.7539C102.599 25.4206 103.599 26.2606 104.346 27.2739V24.1139H109.986V46.2739H104.346V43.0339C103.626 44.0739 102.626 44.9406 101.346 45.6339C100.093 46.3006 98.6393 46.6339 96.9859 46.6339C95.1193 46.6339 93.4126 46.1539 91.8659 45.1939C90.3459 44.2339 89.1326 42.8873 88.2259 41.1539C87.3459 39.3939 86.9059 37.3806 86.9059 35.1139ZM104.346 35.1939C104.346 33.8339 104.079 32.6739 103.546 31.7139C103.013 30.7273 102.293 29.9806 101.386 29.4739C100.479 28.9406 99.5059 28.6739 98.4659 28.6739C97.4259 28.6739 96.4659 28.9273 95.5859 29.4339C94.7059 29.9406 93.9859 30.6873 93.4259 31.6739C92.8926 32.6339 92.6259 33.7806 92.6259 35.1139C92.6259 36.4473 92.8926 37.6206 93.4259 38.6339C93.9859 39.6206 94.7059 40.3806 95.5859 40.9139C96.4926 41.4473 97.4526 41.7139 98.4659 41.7139C99.5059 41.7139 100.479 41.4606 101.386 40.9539C102.293 40.4206 103.013 39.6739 103.546 38.7139C104.079 37.7273 104.346 36.5539 104.346 35.1939ZM123.935 46.6339C122.122 46.6339 120.495 46.3139 119.055 45.6739C117.615 45.0073 116.469 44.1139 115.615 42.9939C114.789 41.8739 114.335 40.6339 114.255 39.2739H119.895C120.002 40.1273 120.415 40.8339 121.135 41.3939C121.882 41.9539 122.802 42.2339 123.895 42.2339C124.962 42.2339 125.789 42.0206 126.375 41.5939C126.989 41.1673 127.295 40.6206 127.295 39.9539C127.295 39.2339 126.922 38.7006 126.175 38.3539C125.455 37.9806 124.295 37.5806 122.695 37.1539C121.042 36.7539 119.682 36.3406 118.615 35.9139C117.575 35.4873 116.669 34.8339 115.895 33.9539C115.149 33.0739 114.775 31.8873 114.775 30.3939C114.775 29.1673 115.122 28.0473 115.815 27.0339C116.535 26.0206 117.549 25.2206 118.855 24.6339C120.189 24.0473 121.749 23.7539 123.535 23.7539C126.175 23.7539 128.282 24.4206 129.855 25.7539C131.429 27.0606 132.295 28.8339 132.455 31.0739H127.095C127.015 30.1939 126.642 29.5006 125.975 28.9939C125.335 28.4606 124.469 28.1939 123.375 28.1939C122.362 28.1939 121.575 28.3806 121.015 28.7539C120.482 29.1273 120.215 29.6473 120.215 30.3139C120.215 31.0606 120.589 31.6339 121.335 32.0339C122.082 32.4073 123.242 32.7939 124.815 33.1939C126.415 33.5939 127.735 34.0073 128.775 34.4339C129.815 34.8606 130.709 35.5273 131.455 36.4339C132.229 37.3139 132.629 38.4873 132.655 39.9539C132.655 41.2339 132.295 42.3806 131.575 43.3939C130.882 44.4073 129.869 45.2073 128.535 45.7939C127.229 46.3539 125.695 46.6339 123.935 46.6339ZM150.372 46.2739L142.852 36.8339V46.2739H137.252V16.6739H142.852V33.5139L150.292 24.1139H157.572L147.812 35.2339L157.652 46.2739H150.372ZM169.292 23.7539C170.945 23.7539 172.398 24.0873 173.652 24.7539C174.905 25.3939 175.892 26.2339 176.612 27.2739V24.1139H182.252V46.4339C182.252 48.4873 181.838 50.3139 181.012 51.9139C180.185 53.5406 178.945 54.8206 177.292 55.7539C175.638 56.7139 173.638 57.1939 171.292 57.1939C168.145 57.1939 165.558 56.4606 163.532 54.9939C161.532 53.5273 160.398 51.5273 160.132 48.9939H165.692C165.985 50.0073 166.612 50.8073 167.572 51.3939C168.558 52.0073 169.745 52.3139 171.132 52.3139C172.758 52.3139 174.078 51.8206 175.092 50.8339C176.105 49.8739 176.612 48.4073 176.612 46.4339V42.9939C175.892 44.0339 174.892 44.9006 173.612 45.5939C172.358 46.2873 170.918 46.6339 169.292 46.6339C167.425 46.6339 165.718 46.1539 164.172 45.1939C162.625 44.2339 161.398 42.8873 160.492 41.1539C159.612 39.3939 159.172 37.3806 159.172 35.1139C159.172 32.8739 159.612 30.8873 160.492 29.1539C161.398 27.4206 162.612 26.0873 164.132 25.1539C165.678 24.2206 167.398 23.7539 169.292 23.7539ZM176.612 35.1939C176.612 33.8339 176.345 32.6739 175.812 31.7139C175.278 30.7273 174.558 29.9806 173.652 29.4739C172.745 28.9406 171.772 28.6739 170.732 28.6739C169.692 28.6739 168.732 28.9273 167.852 29.4339C166.972 29.9406 166.252 30.6873 165.692 31.6739C165.158 32.6339 164.892 33.7806 164.892 35.1139C164.892 36.4473 165.158 37.6206 165.692 38.6339C166.252 39.6206 166.972 40.3806 167.852 40.9139C168.758 41.4473 169.718 41.7139 170.732 41.7139C171.772 41.7139 172.745 41.4606 173.652 40.9539C174.558 40.4206 175.278 39.6739 175.812 38.7139C176.345 37.7273 176.612 36.5539 176.612 35.1939ZM186.281 35.1139C186.281 32.8739 186.721 30.8873 187.601 29.1539C188.508 27.4206 189.721 26.0873 191.241 25.1539C192.788 24.2206 194.508 23.7539 196.401 23.7539C198.054 23.7539 199.494 24.0873 200.721 24.7539C201.974 25.4206 202.974 26.2606 203.721 27.2739V24.1139H209.361V46.2739H203.721V43.0339C203.001 44.0739 202.001 44.9406 200.721 45.6339C199.468 46.3006 198.014 46.6339 196.361 46.6339C194.494 46.6339 192.788 46.1539 191.241 45.1939C189.721 44.2339 188.508 42.8873 187.601 41.1539C186.721 39.3939 186.281 37.3806 186.281 35.1139ZM203.721 35.1939C203.721 33.8339 203.454 32.6739 202.921 31.7139C202.388 30.7273 201.668 29.9806 200.761 29.4739C199.854 28.9406 198.881 28.6739 197.841 28.6739C196.801 28.6739 195.841 28.9273 194.961 29.4339C194.081 29.9406 193.361 30.6873 192.801 31.6739C192.268 32.6339 192.001 33.7806 192.001 35.1139C192.001 36.4473 192.268 37.6206 192.801 38.6339C193.361 39.6206 194.081 40.3806 194.961 40.9139C195.868 41.4473 196.828 41.7139 197.841 41.7139C198.881 41.7139 199.854 41.4606 200.761 40.9539C201.668 40.4206 202.388 39.6739 202.921 38.7139C203.454 37.7273 203.721 36.5539 203.721 35.1939ZM217.67 21.4739C216.684 21.4739 215.857 21.1673 215.19 20.5539C214.55 19.9139 214.23 19.1273 214.23 18.1939C214.23 17.2606 214.55 16.4873 215.19 15.8739C215.857 15.2339 216.684 14.9139 217.67 14.9139C218.657 14.9139 219.47 15.2339 220.11 15.8739C220.777 16.4873 221.11 17.2606 221.11 18.1939C221.11 19.1273 220.777 19.9139 220.11 20.5539C219.47 21.1673 218.657 21.4739 217.67 21.4739ZM220.43 24.1139V46.2739H214.83V24.1139H220.43ZM238.243 23.7939C240.883 23.7939 243.016 24.6339 244.643 26.3139C246.27 27.9673 247.083 30.2873 247.083 33.2739V46.2739H241.483V34.0339C241.483 32.2739 241.043 30.9273 240.163 29.9939C239.283 29.0339 238.083 28.5539 236.563 28.5539C235.016 28.5539 233.79 29.0339 232.883 29.9939C232.003 30.9273 231.563 32.2739 231.563 34.0339V46.2739H225.963V24.1139H231.563V26.8739C232.31 25.9139 233.256 25.1673 234.403 24.6339C235.576 24.0739 236.856 23.7939 238.243 23.7939Z" fill="white"/>
</svg>
