<svg width="165" height="40" viewBox="0 0 165 40" fill="none" xmlns="http://www.w3.org/2000/svg">
<path d="M30.5728 17.5544C30.0034 18.1264 29.5674 18.8167 29.2958 19.576C29.0242 20.3355 28.9236 21.1453 29.0013 21.948L28.9743 21.921C29.0542 22.8658 28.9265 23.8165 28.6003 24.7071C28.2741 25.5975 27.7573 26.4061 27.0859 27.0766C26.4143 27.747 25.6044 28.2632 24.7124 28.5887C23.8205 28.9143 22.8682 29.0418 21.9219 28.962L21.949 28.989C20.8171 28.8839 19.6802 29.1297 18.6933 29.6933C17.7065 30.2568 16.9177 31.1105 16.4347 32.138C15.9517 33.1655 15.7977 34.3166 15.9939 35.4347C16.1902 36.5526 16.727 37.583 17.5313 38.3852C18.3355 39.1874 19.368 39.7225 20.4879 39.9173C21.6079 40.1123 22.7607 39.9575 23.7894 39.4744C24.8181 38.9911 25.6724 38.203 26.236 37.2171C26.7995 36.2313 27.0449 35.0961 26.9385 33.966L26.967 33.993C26.8871 33.0483 27.0147 32.0975 27.3408 31.2069C27.667 30.3165 28.184 29.5079 28.8554 28.8374C29.527 28.167 30.337 27.6508 31.2288 27.3253C32.1208 26.9997 33.073 26.8722 34.0194 26.952L33.9908 26.925C34.9154 27.0079 35.8462 26.8566 36.6967 26.4849C37.547 26.1132 38.2898 25.5331 38.8559 24.7986C39.4221 24.064 39.7935 23.1985 39.9353 22.2826C40.0773 21.3666 39.9853 20.4297 39.668 19.5585C39.3507 18.6874 38.8182 17.9104 38.1201 17.2994C37.4219 16.6885 36.5805 16.2634 35.674 16.0636C34.7674 15.8638 33.825 15.8956 32.934 16.1561C32.0431 16.4168 31.2326 16.8977 30.5773 17.5544H30.5728Z" fill="#2798FF"/>
<path d="M19.4897 25.4523L19.4611 25.4253C20.2654 25.5061 21.0776 25.4076 21.8391 25.1367C22.6006 24.8658 23.2923 24.4294 23.8641 23.859C24.4358 23.2885 24.8736 22.5982 25.1453 21.8382C25.4173 21.0781 25.5166 20.2674 25.4362 19.4643L25.4648 19.4913C25.3848 18.5464 25.5125 17.5957 25.8386 16.7051C26.1647 15.8147 26.6817 15.0061 27.3531 14.3356C28.0247 13.6652 28.8347 13.1491 29.7265 12.8236C30.6185 12.4979 31.5707 12.3705 32.5171 12.4502L32.4885 12.4232C33.6206 12.5294 34.7578 12.2843 35.7452 11.7214C36.7327 11.1585 37.5221 10.3052 38.0058 9.27785C38.4896 8.25056 38.6442 7.09926 38.4486 5.98099C38.253 4.86272 37.7166 3.83194 36.9125 3.02923C36.1086 2.22653 35.0761 1.69096 33.9561 1.49563C32.836 1.30029 31.6829 1.45465 30.6539 1.93769C29.6249 2.4207 28.7704 3.20888 28.2065 4.1947C27.6427 5.18051 27.3972 6.31597 27.5035 7.44619L27.4765 7.41769C27.5566 8.36253 27.4292 9.31345 27.1031 10.204C26.7771 11.0946 26.2601 11.9034 25.5887 12.574C24.9171 13.2443 24.107 13.7605 23.215 14.086C22.3229 14.4115 21.3705 14.5387 20.4242 14.4587L20.4512 14.4872C19.647 14.4064 18.8346 14.5049 18.0732 14.7758C17.3118 15.0466 16.62 15.4831 16.0482 16.0535C15.4764 16.624 15.0388 17.3143 14.7668 18.0744C14.495 18.8344 14.3957 19.6452 14.4761 20.4483L14.4491 20.4213C14.5287 21.366 14.4008 22.3167 14.0747 23.2071C13.7483 24.0973 13.2315 24.906 12.5601 25.5763C11.8886 26.2467 11.0787 26.7627 10.187 27.0885C9.29518 27.4142 8.34297 27.5418 7.39673 27.4623L7.42378 27.4893C6.29174 27.3831 5.15446 27.6282 4.16705 28.1912C3.17967 28.7541 2.39023 29.6073 1.90643 30.6347C1.42263 31.662 1.268 32.8133 1.46366 33.9315C1.65932 35.0498 2.19574 36.0806 2.99973 36.8832C3.80373 37.6861 4.83616 38.2216 5.95622 38.4169C7.07628 38.6122 8.22943 38.4578 9.25839 37.9748C10.2873 37.4918 11.142 36.7037 11.7058 35.7179C12.2697 34.7319 12.5152 33.5966 12.4088 32.4663L12.4373 32.4933C12.3574 31.5485 12.4851 30.5978 12.8113 29.7072C13.1373 28.8168 13.6543 28.0082 14.3257 27.3377C14.9973 26.6673 15.8072 26.1511 16.6991 25.8256C17.5911 25.5 18.5433 25.3725 19.4897 25.4523Z" fill="#2798FF"/>
<path d="M9.41998 22.4416C9.98942 21.8698 10.4254 21.1795 10.6968 20.42C10.9682 19.6606 11.0683 18.8506 10.99 18.048L11.0185 18.0751C10.9386 17.13 11.0662 16.1789 11.3926 15.2882C11.7189 14.3975 12.2361 13.5887 12.908 12.9182C13.5799 12.2477 14.3901 11.7317 15.2824 11.4063C16.1747 11.0808 17.1274 10.9538 18.0739 11.034L18.0453 11.007C19.177 11.1129 20.3138 10.8676 21.3008 10.3048C22.2877 9.74192 23.0766 8.88882 23.5602 7.86184C24.0437 6.83485 24.1982 5.68397 24.0026 4.56611C23.8069 3.44826 23.2706 2.41788 22.4669 1.61546C21.6633 0.81305 20.6311 0.277667 19.5115 0.0823362C18.3919 -0.11301 17.2391 0.0412209 16.2106 0.523953C15.1819 1.00669 14.3275 1.79445 13.7638 2.7798C13.1999 3.76516 12.9543 4.90015 13.0603 6.02999L13.0333 6.00299C13.1132 6.94777 12.9855 7.89858 12.6593 8.78904C12.3332 9.67951 11.8164 10.4882 11.1448 11.1586C10.4733 11.8291 9.66335 12.3451 8.77146 12.6707C7.87957 12.9963 6.92725 13.1238 5.98096 13.044L6.008 13.071C5.08337 12.9882 4.15276 13.1399 3.30242 13.5117C2.45209 13.8836 1.70952 14.4638 1.14355 15.1985C0.577571 15.933 0.206505 16.7985 0.0647073 17.7144C-0.0770754 18.6305 0.0150075 19.5674 0.332422 20.4383C0.649837 21.3094 1.18234 22.0862 1.88055 22.697C2.57877 23.308 3.42012 23.7329 4.32665 23.9327C5.23316 24.1324 6.17552 24.1004 7.0664 23.8399C7.95727 23.5792 8.76783 23.0983 9.42297 22.4416H9.41998Z" fill="#2798FF"/>
<path d="M65.056 11.7478V14.4598H60.592V28.4998H57.232V14.4598H52.768V11.7478H65.056ZM66.6436 21.8038C66.6436 20.4598 66.9076 19.2678 67.4356 18.2278C67.9796 17.1878 68.7076 16.3878 69.6196 15.8278C70.5476 15.2678 71.5796 14.9878 72.7156 14.9878C73.7076 14.9878 74.5716 15.1878 75.3076 15.5878C76.0596 15.9878 76.6596 16.4918 77.1076 17.0998V15.2038H80.4916V28.4998H77.1076V26.5558C76.6756 27.1798 76.0756 27.6998 75.3076 28.1158C74.5556 28.5158 73.6836 28.7158 72.6916 28.7158C71.5716 28.7158 70.5476 28.4278 69.6196 27.8518C68.7076 27.2758 67.9796 26.4678 67.4356 25.4278C66.9076 24.3718 66.6436 23.1638 66.6436 21.8038ZM77.1076 21.8518C77.1076 21.0358 76.9476 20.3398 76.6276 19.7638C76.3076 19.1718 75.8756 18.7238 75.3316 18.4198C74.7876 18.0998 74.2036 17.9398 73.5796 17.9398C72.9556 17.9398 72.3796 18.0918 71.8516 18.3958C71.3236 18.6998 70.8916 19.1478 70.5556 19.7398C70.2356 20.3158 70.0756 21.0038 70.0756 21.8038C70.0756 22.6038 70.2356 23.3078 70.5556 23.9158C70.8916 24.5078 71.3236 24.9638 71.8516 25.2838C72.3956 25.6038 72.9716 25.7638 73.5796 25.7638C74.2036 25.7638 74.7876 25.6118 75.3316 25.3078C75.8756 24.9878 76.3076 24.5398 76.6276 23.9638C76.9476 23.3718 77.1076 22.6678 77.1076 21.8518ZM88.8612 28.7158C87.7732 28.7158 86.7972 28.5238 85.9332 28.1398C85.0692 27.7398 84.3812 27.2038 83.8692 26.5318C83.3732 25.8598 83.1012 25.1158 83.0532 24.2998H86.4372C86.5012 24.8118 86.7492 25.2358 87.1812 25.5718C87.6292 25.9078 88.1812 26.0758 88.8372 26.0758C89.4772 26.0758 89.9732 25.9478 90.3252 25.6918C90.6932 25.4358 90.8772 25.1078 90.8772 24.7078C90.8772 24.2758 90.6532 23.9558 90.2052 23.7478C89.7732 23.5238 89.0772 23.2838 88.1172 23.0278C87.1252 22.7878 86.3092 22.5398 85.6692 22.2838C85.0452 22.0278 84.5012 21.6358 84.0372 21.1078C83.5892 20.5798 83.3652 19.8678 83.3652 18.9718C83.3652 18.2358 83.5732 17.5638 83.9892 16.9558C84.4212 16.3478 85.0292 15.8678 85.8132 15.5158C86.6132 15.1638 87.5492 14.9878 88.6212 14.9878C90.2052 14.9878 91.4692 15.3878 92.4132 16.1878C93.3572 16.9718 93.8772 18.0358 93.9732 19.3798H90.7572C90.7092 18.8518 90.4852 18.4358 90.0852 18.1318C89.7012 17.8118 89.1812 17.6518 88.5252 17.6518C87.9172 17.6518 87.4452 17.7638 87.1092 17.9878C86.7892 18.2118 86.6292 18.5238 86.6292 18.9238C86.6292 19.3718 86.8532 19.7158 87.3012 19.9558C87.7492 20.1798 88.4452 20.4118 89.3892 20.6518C90.3492 20.8918 91.1412 21.1398 91.7652 21.3958C92.3892 21.6518 92.9252 22.0518 93.3732 22.5958C93.8372 23.1238 94.0772 23.8278 94.0932 24.7078C94.0932 25.4758 93.8772 26.1638 93.4452 26.7718C93.0292 27.3798 92.4212 27.8598 91.6212 28.2118C90.8372 28.5478 89.9172 28.7158 88.8612 28.7158ZM104.723 28.4998L100.211 22.8358V28.4998H96.8513V10.7398H100.211V20.8438L104.675 15.2038H109.043L103.187 21.8758L109.091 28.4998H104.723ZM116.075 14.9878C117.067 14.9878 117.939 15.1878 118.691 15.5878C119.443 15.9718 120.035 16.4758 120.467 17.0998V15.2038H123.851V28.5958C123.851 29.8278 123.603 30.9238 123.107 31.8838C122.611 32.8598 121.867 33.6278 120.875 34.1878C119.883 34.7638 118.683 35.0518 117.275 35.0518C115.387 35.0518 113.835 34.6118 112.619 33.7318C111.419 32.8518 110.739 31.6518 110.579 30.1318H113.915C114.091 30.7398 114.467 31.2198 115.043 31.5718C115.635 31.9398 116.347 32.1238 117.179 32.1238C118.155 32.1238 118.947 31.8278 119.555 31.2358C120.163 30.6598 120.467 29.7798 120.467 28.5958V26.5318C120.035 27.1558 119.435 27.6758 118.667 28.0918C117.915 28.5078 117.051 28.7158 116.075 28.7158C114.955 28.7158 113.931 28.4278 113.003 27.8518C112.075 27.2758 111.339 26.4678 110.795 25.4278C110.267 24.3718 110.003 23.1638 110.003 21.8038C110.003 20.4598 110.267 19.2678 110.795 18.2278C111.339 17.1878 112.067 16.3878 112.979 15.8278C113.907 15.2678 114.939 14.9878 116.075 14.9878ZM120.467 21.8518C120.467 21.0358 120.307 20.3398 119.987 19.7638C119.667 19.1718 119.235 18.7238 118.691 18.4198C118.147 18.0998 117.563 17.9398 116.939 17.9398C116.315 17.9398 115.739 18.0918 115.211 18.3958C114.683 18.6998 114.251 19.1478 113.915 19.7398C113.595 20.3158 113.435 21.0038 113.435 21.8038C113.435 22.6038 113.595 23.3078 113.915 23.9158C114.251 24.5078 114.683 24.9638 115.211 25.2838C115.755 25.6038 116.331 25.7638 116.939 25.7638C117.563 25.7638 118.147 25.6118 118.691 25.3078C119.235 24.9878 119.667 24.5398 119.987 23.9638C120.307 23.3718 120.467 22.6678 120.467 21.8518ZM126.269 21.8038C126.269 20.4598 126.533 19.2678 127.061 18.2278C127.605 17.1878 128.333 16.3878 129.245 15.8278C130.173 15.2678 131.205 14.9878 132.341 14.9878C133.333 14.9878 134.197 15.1878 134.933 15.5878C135.685 15.9878 136.285 16.4918 136.733 17.0998V15.2038H140.117V28.4998H136.733V26.5558C136.301 27.1798 135.701 27.6998 134.933 28.1158C134.181 28.5158 133.309 28.7158 132.317 28.7158C131.197 28.7158 130.173 28.4278 129.245 27.8518C128.333 27.2758 127.605 26.4678 127.061 25.4278C126.533 24.3718 126.269 23.1638 126.269 21.8038ZM136.733 21.8518C136.733 21.0358 136.573 20.3398 136.253 19.7638C135.933 19.1718 135.501 18.7238 134.957 18.4198C134.413 18.0998 133.829 17.9398 133.205 17.9398C132.581 17.9398 132.005 18.0918 131.477 18.3958C130.949 18.6998 130.517 19.1478 130.181 19.7398C129.861 20.3158 129.701 21.0038 129.701 21.8038C129.701 22.6038 129.861 23.3078 130.181 23.9158C130.517 24.5078 130.949 24.9638 131.477 25.2838C132.021 25.6038 132.597 25.7638 133.205 25.7638C133.829 25.7638 134.413 25.6118 134.957 25.3078C135.501 24.9878 135.933 24.5398 136.253 23.9638C136.573 23.3718 136.733 22.6678 136.733 21.8518ZM145.102 13.6198C144.51 13.6198 144.014 13.4358 143.614 13.0678C143.23 12.6838 143.038 12.2118 143.038 11.6518C143.038 11.0918 143.23 10.6278 143.614 10.2598C144.014 9.87575 144.51 9.68375 145.102 9.68375C145.694 9.68375 146.182 9.87575 146.566 10.2598C146.966 10.6278 147.166 11.0918 147.166 11.6518C147.166 12.2118 146.966 12.6838 146.566 13.0678C146.182 13.4358 145.694 13.6198 145.102 13.6198ZM146.758 15.2038V28.4998H143.398V15.2038H146.758ZM157.446 15.0118C159.03 15.0118 160.31 15.5158 161.286 16.5238C162.262 17.5158 162.75 18.9078 162.75 20.6998V28.4998H159.39V21.1558C159.39 20.0998 159.126 19.2918 158.598 18.7318C158.07 18.1558 157.35 17.8678 156.438 17.8678C155.51 17.8678 154.774 18.1558 154.23 18.7318C153.702 19.2918 153.438 20.0998 153.438 21.1558V28.4998H150.078V15.2038H153.438V16.8598C153.886 16.2838 154.454 15.8358 155.142 15.5158C155.846 15.1798 156.614 15.0118 157.446 15.0118Z" fill="#403A3A"/>
</svg>
