<svg width="193" height="35" viewBox="0 0 193 35" fill="none" xmlns="http://www.w3.org/2000/svg">
<g clip-path="url(#clip0_1413_459)">
<path d="M23.3089 14.3614C23.1843 14.3614 23.0793 14.3647 23.0203 14.3713C22.9514 14.4963 22.8497 14.664 22.6988 14.8976C25.0473 14.8976 27.1794 15.0916 29.5376 15.5158L28.8718 16.1605C26.7431 15.7822 24.9752 15.631 22.7218 15.631C22.3939 15.631 22.325 15.631 22.2463 15.6343C22.1675 15.7526 21.9904 15.9828 21.8133 16.1967C22.0134 16.1835 22.4004 16.1769 22.935 16.1769C24.7882 16.1769 26.52 16.315 28.3995 16.6177L27.7336 17.2656C26.3035 17.0419 24.5553 16.9136 22.9875 16.9136C22.4299 16.9136 21.7969 16.9334 21.2294 16.9663C21.1015 17.1142 20.767 17.4761 20.6653 17.5878C21.4164 17.5089 22.243 17.4727 23.2269 17.4727C24.6275 17.4727 25.9658 17.5649 27.2318 17.7523L26.5659 18.3936C25.664 18.2818 24.5684 18.2161 23.6009 18.2161C21.1048 18.2161 19.1368 18.7587 17.1032 20.0052C19.0417 22.0904 22.2167 23.4092 25.2933 23.4092H25.582L24.5062 24.452C20.0683 23.6165 15.3976 21.6596 11.4518 18.979C7.65685 16.4104 6.32847 15.6507 3.36666 14.3385L3.34698 13.5754L5.35105 14.4371L6.03329 13.8944L12.5768 16.9005L12.1504 17.2425L8.79173 15.779L8.46045 16.0388L10.2054 17.0156C11.6782 17.8379 12.7999 18.2062 13.8364 18.2062C16.1028 18.2062 18.1365 16.5946 19.4484 13.7629C20.4357 13.6346 21.4886 13.5754 22.7546 13.5754C25.3524 13.5754 27.8746 13.8253 30.7315 14.3614L30.0362 15.0356C28.2585 14.664 25.2376 14.3614 23.3089 14.3614ZM16.949 33.0917C8.43638 33.0917 1.53109 26.1677 1.53109 17.6319C1.53109 9.09607 8.43638 2.17192 16.949 2.17192C25.4617 2.17192 32.367 9.09607 32.367 17.6319C32.367 26.1677 25.4617 33.0917 16.949 33.0917ZM16.949 1.18518C7.87873 1.18518 0.546875 8.53683 0.546875 17.6319C0.546875 26.7269 7.87873 34.0786 16.949 34.0786C26.0194 34.0786 33.3512 26.7269 33.3512 17.6319C33.3512 8.53683 26.0194 1.18518 16.949 1.18518ZM60.2818 24.1793H69.6857V28.5964H55.2206V6.66733H60.2818V24.1793ZM81.0578 12.8075H85.7753V28.5964H81.3391V26.7794C80.6829 28.0012 79.3396 29.0662 76.8713 29.0662C72.8413 29.0662 70.748 27.2492 70.748 22.049V12.8075H75.4656V21.8296C75.4656 23.9286 76.3717 24.8683 78.2774 24.8683C79.9957 24.8683 81.0578 23.9286 81.0578 21.8296V12.8075ZM89.3995 12.2124C89.3995 8.39054 91.8053 6.3541 95.5855 6.3541C96.8041 6.3541 97.5851 6.54209 97.5851 6.54209V10.3639C97.5851 10.3639 96.929 10.3015 96.3665 10.3015C94.8981 10.3015 94.117 10.8027 94.117 12.181V12.8075H97.5851V16.6608H94.117V28.5964H89.3995V16.6608H87.0252V12.8075H89.3995V12.2124ZM105.895 12.8075H109.488V16.6608H105.895V22.8009C105.895 24.4926 106.77 24.9311 108.145 24.9311C108.707 24.9311 109.488 24.8372 109.488 24.8372V28.6277C109.488 28.6277 108.395 28.8782 107.239 28.8782C103.458 28.8782 101.178 27.1553 101.178 23.3336V16.6608H98.8032V12.8075H101.178V8.20247H105.895V12.8075ZM119.932 12.3376C123.932 12.3376 126.025 14.1545 126.025 19.3548V28.5964H121.307V19.5741C121.307 17.4753 120.402 16.5356 118.433 16.5356C116.652 16.5356 115.59 17.4753 115.59 19.5741V28.5964H110.873V6.69874H115.621V14.3425C116.434 13.1833 117.714 12.3376 119.932 12.3376ZM138.053 22.4562C138.053 24.1793 136.428 25.4638 133.929 25.4638C132.711 25.4638 131.992 24.8999 131.992 23.8346C131.992 23.0202 132.492 22.331 134.086 22.1119L136.804 21.7358C137.272 21.673 137.772 21.5792 138.053 21.4852V22.4562ZM135.429 12.3377C130.774 12.3377 128.524 14.1234 128.337 17.4754H132.929C132.992 16.5981 133.492 15.9402 135.429 15.9402C137.147 15.9402 137.959 16.5043 137.959 17.3499C137.959 18.102 137.49 18.3838 136.335 18.5091L133.336 18.8223C129.274 19.2608 127.431 20.9526 127.431 24.0228C127.431 26.8734 129.18 29.0662 132.898 29.0662C135.429 29.0662 136.929 28.2517 138.24 26.6226V28.5964H142.552V18.2271C142.552 13.8727 140.022 12.3377 135.429 12.3377ZM153.461 12.3376C157.553 12.3376 159.647 14.1545 159.647 19.3548V28.5964H154.929V19.5741C154.929 17.4753 154.023 16.5356 152.055 16.5356C150.273 16.5356 149.212 17.4753 149.212 19.5741V28.5964H144.494V12.8076H148.93V14.6246C149.587 13.4027 150.93 12.3376 153.461 12.3376ZM169.598 18.697C173.597 19.2297 175.597 20.4827 175.597 23.772C175.597 27.0927 173.254 29.0663 168.286 29.0663C162.881 29.0663 160.975 26.9049 160.882 23.7406H165.537C165.662 24.8999 166.474 25.4638 168.286 25.4638C170.129 25.4638 170.879 25.025 170.879 24.148C170.879 23.3336 170.254 22.9577 168.63 22.7383L166.974 22.5189C163.506 22.0491 161.507 20.7021 161.507 17.5693C161.507 14.5619 163.725 12.3376 168.38 12.3376C172.691 12.3376 175.003 14.0606 175.222 17.4753H170.629C170.473 16.567 169.973 16.003 168.38 16.003C166.818 16.003 166.224 16.5356 166.224 17.2249C166.224 17.9138 166.599 18.2898 167.943 18.4779L169.598 18.697ZM187.406 22.4565C187.406 24.1793 185.781 25.4638 183.282 25.4638C182.063 25.4638 181.345 24.8999 181.345 23.8346C181.345 23.0202 181.845 22.331 183.438 22.1119L186.156 21.7358C186.625 21.6733 187.124 21.5792 187.406 21.4852V22.4565ZM184.781 12.3377C180.127 12.3377 177.877 14.1234 177.69 17.4754H182.283C182.345 16.5981 182.845 15.9405 184.781 15.9405C186.5 15.9405 187.313 16.5043 187.313 17.3501C187.313 18.102 186.844 18.3838 185.688 18.5091L182.688 18.8223C178.627 19.261 176.784 20.9526 176.784 24.0228C176.784 26.8734 178.533 29.0662 182.251 29.0662C184.781 29.0662 186.281 28.2517 187.594 26.6226V28.5964H191.905V18.2271C191.905 13.8729 189.374 12.3377 184.781 12.3377Z" fill="white"/>
</g>
<defs>
<clipPath id="clip0_1413_459">
<rect width="192.453" height="34" fill="white" transform="translate(0 0.636963)"/>
</clipPath>
</defs>
</svg>
