<svg width="193" height="35" viewBox="0 0 193 35" fill="none" xmlns="http://www.w3.org/2000/svg">
<g clip-path="url(#clip0_1134_1675)">
<path d="M23.3089 14.3613C23.1843 14.3613 23.0793 14.3646 23.0203 14.3712C22.9514 14.4962 22.8497 14.6639 22.6988 14.8974C25.0473 14.8974 27.1794 15.0915 29.5376 15.5157L28.8718 16.1603C26.7431 15.7821 24.9752 15.6309 22.7218 15.6309C22.3939 15.6309 22.325 15.6309 22.2463 15.6341C22.1675 15.7525 21.9904 15.9827 21.8133 16.1965C22.0134 16.1834 22.4004 16.1768 22.935 16.1768C24.7882 16.1768 26.52 16.3149 28.3995 16.6175L27.7336 17.2654C26.3035 17.0418 24.5553 16.9135 22.9875 16.9135C22.4299 16.9135 21.7969 16.9333 21.2294 16.9661C21.1015 17.1141 20.767 17.4759 20.6653 17.5877C21.4164 17.5088 22.243 17.4726 23.2269 17.4726C24.6275 17.4726 25.9658 17.5647 27.2318 17.7522L26.5659 18.3935C25.664 18.2817 24.5684 18.216 23.6009 18.216C21.1048 18.216 19.1368 18.7586 17.1032 20.0051C19.0417 22.0903 22.2167 23.4091 25.2933 23.4091H25.582L24.5062 24.4518C20.0683 23.6163 15.3976 21.6594 11.4518 18.9789C7.65685 16.4103 6.32847 15.6506 3.36666 14.3384L3.34698 13.5753L5.35105 14.437L6.03329 13.8943L12.5768 16.9004L12.1504 17.2424L8.79173 15.7789L8.46045 16.0387L10.2054 17.0155C11.6782 17.8377 12.7999 18.2061 13.8364 18.2061C16.1028 18.2061 18.1365 16.5945 19.4484 13.7628C20.4357 13.6344 21.4886 13.5753 22.7546 13.5753C25.3524 13.5753 27.8746 13.8252 30.7315 14.3613L30.0362 15.0355C28.2585 14.6639 25.2376 14.3613 23.3089 14.3613ZM16.949 33.0916C8.43638 33.0916 1.53109 26.1675 1.53109 17.6317C1.53109 9.09594 8.43638 2.1718 16.949 2.1718C25.4617 2.1718 32.367 9.09594 32.367 17.6317C32.367 26.1675 25.4617 33.0916 16.949 33.0916ZM16.949 1.18506C7.87873 1.18506 0.546875 8.5367 0.546875 17.6317C0.546875 26.7268 7.87873 34.0785 16.949 34.0785C26.0194 34.0785 33.3512 26.7268 33.3512 17.6317C33.3512 8.5367 26.0194 1.18506 16.949 1.18506ZM60.2818 24.1791H69.6857V28.5963H55.2206V6.66721H60.2818V24.1791ZM81.0578 12.8074H85.7753V28.5963H81.3391V26.7793C80.6829 28.0011 79.3396 29.0661 76.8713 29.0661C72.8413 29.0661 70.748 27.2491 70.748 22.0489V12.8074H75.4656V21.8295C75.4656 23.9285 76.3717 24.8682 78.2774 24.8682C79.9957 24.8682 81.0578 23.9285 81.0578 21.8295V12.8074ZM89.3995 12.2123C89.3995 8.39042 91.8053 6.35398 95.5855 6.35398C96.8041 6.35398 97.5851 6.54197 97.5851 6.54197V10.3638C97.5851 10.3638 96.929 10.3014 96.3665 10.3014C94.8981 10.3014 94.117 10.8026 94.117 12.1809V12.8074H97.5851V16.6606H94.117V28.5963H89.3995V16.6606H87.0252V12.8074H89.3995V12.2123ZM105.895 12.8074H109.488V16.6606H105.895V22.8007C105.895 24.4925 106.77 24.931 108.145 24.931C108.707 24.931 109.488 24.8371 109.488 24.8371V28.6276C109.488 28.6276 108.395 28.8781 107.239 28.8781C103.458 28.8781 101.178 27.1552 101.178 23.3334V16.6606H98.8032V12.8074H101.178V8.20235H105.895V12.8074ZM119.932 12.3375C123.932 12.3375 126.025 14.1544 126.025 19.3547V28.5963H121.307V19.5739C121.307 17.4752 120.402 16.5355 118.433 16.5355C116.652 16.5355 115.59 17.4752 115.59 19.5739V28.5963H110.873V6.69862H115.621V14.3424C116.434 13.1832 117.714 12.3375 119.932 12.3375ZM138.053 22.4561C138.053 24.1791 136.428 25.4636 133.929 25.4636C132.711 25.4636 131.992 24.8998 131.992 23.8345C131.992 23.02 132.492 22.3309 134.086 22.1118L136.804 21.7356C137.272 21.6729 137.772 21.5791 138.053 21.4851V22.4561ZM135.429 12.3376C130.774 12.3376 128.524 14.1233 128.337 17.4752H132.929C132.992 16.598 133.492 15.9401 135.429 15.9401C137.147 15.9401 137.959 16.5041 137.959 17.3498C137.959 18.1019 137.49 18.3837 136.335 18.5089L133.336 18.8222C129.274 19.2606 127.431 20.9524 127.431 24.0226C127.431 26.8733 129.18 29.0661 132.898 29.0661C135.429 29.0661 136.929 28.2516 138.24 26.6225V28.5963H142.552V18.227C142.552 13.8726 140.022 12.3376 135.429 12.3376ZM153.461 12.3375C157.553 12.3375 159.647 14.1544 159.647 19.3547V28.5963H154.929V19.5739C154.929 17.4752 154.023 16.5355 152.055 16.5355C150.273 16.5355 149.212 17.4752 149.212 19.5739V28.5963H144.494V12.8075H148.93V14.6245C149.587 13.4026 150.93 12.3375 153.461 12.3375ZM169.598 18.6968C173.597 19.2295 175.597 20.4825 175.597 23.7719C175.597 27.0926 173.254 29.0662 168.286 29.0662C162.881 29.0662 160.975 26.9048 160.882 23.7404H165.537C165.662 24.8998 166.474 25.4636 168.286 25.4636C170.129 25.4636 170.879 25.0249 170.879 24.1479C170.879 23.3334 170.254 22.9575 168.63 22.7382L166.974 22.5188C163.506 22.0489 161.507 20.7019 161.507 17.5692C161.507 14.5618 163.725 12.3375 168.38 12.3375C172.691 12.3375 175.003 14.0605 175.222 17.4752H170.629C170.473 16.5669 169.973 16.0028 168.38 16.0028C166.818 16.0028 166.224 16.5355 166.224 17.2247C166.224 17.9137 166.599 18.2897 167.943 18.4778L169.598 18.6968ZM187.406 22.4564C187.406 24.1792 185.781 25.4636 183.282 25.4636C182.063 25.4636 181.345 24.8998 181.345 23.8345C181.345 23.02 181.845 22.3309 183.438 22.1118L186.156 21.7356C186.625 21.6732 187.124 21.5791 187.406 21.4851V22.4564ZM184.781 12.3376C180.127 12.3376 177.877 14.1233 177.69 17.4752H182.283C182.345 16.598 182.845 15.9403 184.781 15.9403C186.5 15.9403 187.313 16.5041 187.313 17.35C187.313 18.1019 186.844 18.3837 185.688 18.5089L182.688 18.8222C178.627 19.2609 176.784 20.9525 176.784 24.0226C176.784 26.8733 178.533 29.0661 182.251 29.0661C184.781 29.0661 186.281 28.2516 187.594 26.6225V28.5963H191.905V18.227C191.905 13.8728 189.374 12.3376 184.781 12.3376Z" fill="#878787"/>
</g>
<defs>
<clipPath id="clip0_1134_1675">
<rect width="192.453" height="34" fill="white" transform="translate(0 0.636902)"/>
</clipPath>
</defs>
</svg>
