<svg width="185" height="35" viewBox="0 0 185 35" fill="none" xmlns="http://www.w3.org/2000/svg">
<g clip-path="url(#clip0_1413_477)">
<path d="M4.64363 27.3626C3.96573 27.3641 3.29958 27.1856 2.71324 26.8453C2.1269 26.5051 1.64139 26.0153 1.3063 25.426C0.976347 24.8408 0.811789 24.1769 0.830257 23.5054C0.848725 22.8339 1.04952 22.18 1.41114 21.6139L8.28383 10.8212C8.63558 10.2412 9.13499 9.76493 9.73105 9.44106C10.3271 9.11719 10.9984 8.95733 11.6765 8.97782C12.354 8.99406 13.0151 9.19002 13.592 9.54565C14.1689 9.90128 14.641 10.4038 14.9599 11.0018C15.6006 12.2133 15.5205 13.6708 14.7532 14.8081L7.88486 25.6007C7.53656 26.1434 7.05689 26.5895 6.49029 26.8975C5.9237 27.2055 5.28852 27.3654 4.64363 27.3626Z" fill="white"/>
<path d="M16.4321 27.3624C15.0459 27.3624 13.7704 26.6212 13.1006 25.4301C12.7714 24.8466 12.6072 24.1844 12.6257 23.5146C12.6441 22.8449 12.8446 22.1927 13.2054 21.6282L20.065 10.8603C20.4116 10.2721 20.9092 9.78737 21.5063 9.45632C22.1034 9.12526 22.7781 8.95997 23.4606 8.97759C24.8584 9.00817 26.1252 9.7901 26.7659 11.0132C27.4022 12.2364 27.309 13.7027 26.5184 14.837L19.6602 25.6048C19.313 26.1453 18.8353 26.5896 18.2711 26.8967C17.7069 27.2039 17.0745 27.364 16.4321 27.3624Z" fill="white"/>
<path d="M27.957 27.4526C29.9111 27.4526 31.4952 25.9016 31.4952 23.9885C31.4952 22.0753 29.9111 20.5244 27.957 20.5244C26.0028 20.5244 24.4187 22.0753 24.4187 23.9885C24.4187 25.9016 26.0028 27.4526 27.957 27.4526Z" fill="white"/>
<path d="M181.669 20.7254C182.738 20.7254 183.377 21.4855 183.377 22.7305V26.9969H184.829V22.6329C184.829 20.5158 183.832 19.2883 181.956 19.2883C181.222 19.2883 180.058 19.4892 179.363 20.839C179.202 20.4409 178.935 20.0939 178.593 19.8349C178.25 19.576 177.843 19.4148 177.416 19.3683C177.147 19.3191 176.874 19.303 176.601 19.3203C176.004 19.3683 174.941 19.7397 174.543 20.5813V19.4499H173.09V26.9969H174.543V22.9242C174.543 21.3399 175.58 20.7254 176.618 20.7254C177.591 20.7254 178.23 21.4695 178.23 22.7145V26.9969H179.675V22.9242C179.675 21.6632 180.432 20.7109 181.669 20.7254ZM167.757 25.7359C168.421 25.7504 169.061 25.4854 169.526 25.0049C169.992 24.5244 170.239 23.8706 170.215 23.1994C170.215 21.6792 169.096 20.7254 167.757 20.7254C166.416 20.7254 165.299 21.6792 165.299 23.1994C165.273 23.8692 165.52 24.5215 165.983 25.0006C166.446 25.4811 167.084 25.7475 167.745 25.7359H167.757ZM167.757 27.1512C165.634 27.1512 163.862 25.583 163.862 23.1906C163.862 20.7982 165.634 19.2795 167.757 19.2795C169.88 19.2795 171.666 20.7982 171.666 23.1906C171.666 25.583 169.869 27.1585 167.746 27.1585L167.757 27.1512ZM156.385 23.1906L156.37 23.1994C156.37 20.807 158.189 19.2883 160.326 19.2795C160.863 19.2691 161.396 19.3716 161.891 19.5803C162.386 19.789 162.832 20.0992 163.199 20.491L162.098 21.4287C161.865 21.1991 161.588 21.0181 161.283 20.8962C160.979 20.7742 160.654 20.7137 160.326 20.7182C158.987 20.7182 157.822 21.6719 157.822 23.1906C157.822 24.2172 158.432 25.1418 159.368 25.5349C160.304 25.9281 161.382 25.7097 162.098 24.9845L163.215 25.9223C162.847 26.3181 162.399 26.632 161.901 26.8437C161.404 27.0554 160.867 27.1602 160.326 27.1512C158.205 27.1512 156.385 25.583 156.385 23.1906ZM151.735 25.548C151.734 25.4161 151.758 25.2852 151.807 25.1627C151.856 25.0402 151.929 24.9286 152.021 24.8342C152.114 24.7398 152.224 24.6645 152.345 24.6126C152.466 24.5607 152.597 24.5332 152.728 24.5317C152.86 24.5332 152.991 24.5607 153.112 24.6126C153.233 24.6645 153.343 24.7398 153.435 24.8342C153.528 24.9286 153.6 25.0402 153.65 25.1627C153.699 25.2852 153.723 25.4161 153.722 25.548C153.709 25.8036 153.599 26.0445 153.414 26.2218C153.23 26.399 152.984 26.4992 152.728 26.5018C152.473 26.4992 152.227 26.399 152.043 26.2218C151.858 26.0445 151.748 25.8036 151.735 25.548Z" fill="white"/>
<path fill-rule="evenodd" clip-rule="evenodd" d="M155.707 9.85562H150.537L146.913 19.1994L143.307 9.85562H138.137L144.423 24.6205L140.513 34.3822H145.646L155.707 9.85562ZM124.262 18.068C124.262 20.4269 126.324 21.9791 128.349 21.9791C130.34 21.9791 132.295 20.5347 132.295 18.0666C132.295 15.5985 130.34 14.1526 128.349 14.1526C126.324 14.1526 124.262 15.7077 124.262 18.068ZM132.295 26.3125V24.4443C131.247 26.0315 128.8 26.6314 127.545 26.6314C123.39 26.6314 119.233 23.3551 119.233 18.0666C119.233 12.7795 123.388 9.50324 127.545 9.50324C128.592 9.50324 131.038 9.8527 132.295 11.6874V9.86144H137.115V26.3154L132.295 26.3125ZM117.861 26.3125H113.041V24.2681C112.236 25.7825 110.284 26.6649 108.257 26.6649C104.065 26.6649 100.362 23.3173 100.362 18.1336C100.362 12.8523 104.065 9.50033 108.257 9.50033C110.281 9.50033 112.239 10.3449 113.041 11.8607V0.891846H117.861V26.3125ZM112.937 18.0302C112.937 15.5635 111.156 14.1176 109.165 14.1176C107.103 14.1176 105.391 15.6684 105.391 18.0302C105.391 20.4677 107.103 22.0112 109.164 22.0112C111.192 22.0141 112.937 20.392 112.937 18.0302ZM88.4453 17.605C88.4453 15.1034 89.7383 14.2574 91.4492 14.2574C93.0902 14.2574 94.2783 15.3495 94.2783 17.5336V26.3096H99.1329V16.478C99.1329 11.7922 96.8265 9.50033 93.1586 9.50033C91.238 9.50033 89.3175 10.5924 88.4438 12.2494V9.85562H83.5922V26.3096H88.4453V17.605ZM73.7345 26.5921C69.1246 26.5921 65.2791 23.2095 65.2791 18.0287C65.2791 12.845 69.1202 9.49596 73.7345 9.49596C78.3488 9.49596 82.2235 12.845 82.2235 18.0287C82.2235 23.2124 78.3445 26.5921 73.7345 26.5921ZM73.7345 21.8015C75.7585 21.8015 77.4373 20.3192 77.4373 18.0302C77.4373 15.8096 75.7599 14.2938 73.7345 14.2938C73.2468 14.2862 72.7627 14.3779 72.3116 14.5634C71.8605 14.7489 71.4519 15.0243 71.1107 15.3728C70.7674 15.7232 70.4981 16.1389 70.3188 16.5955C70.1394 17.052 70.0537 17.5399 70.0667 18.0302C70.0681 20.3221 71.7441 21.8015 73.7345 21.8015ZM56.5761 14.2589C58.0074 14.2589 59.2655 15.3874 59.2655 17.5351V26.3125H64.0851V16.9672C64.0851 11.999 61.6695 9.49741 57.7977 9.49741C56.6474 9.49741 54.4808 9.84688 52.9082 12.4213C51.9996 10.5181 50.2538 9.5309 47.6736 9.5309C46.7778 9.52635 45.8996 9.77989 45.1441 10.2612C44.3886 10.7425 43.7876 11.4313 43.4131 12.2451V9.85707H38.5557V26.311H43.4088V17.605C43.4088 15.1034 44.7717 14.2574 46.2379 14.2574C47.6358 14.2574 48.8909 15.3495 48.9273 17.4288V26.311H53.7819V17.605C53.7819 15.2126 55.0399 14.2589 56.5761 14.2589Z" fill="white"/>
</g>
<defs>
<clipPath id="clip0_1413_477">
<rect width="184" height="33.4904" fill="white" transform="translate(0.828857 0.891846)"/>
</clipPath>
</defs>
</svg>
