<svg width="185" height="35" viewBox="0 0 185 35" fill="none" xmlns="http://www.w3.org/2000/svg">
<g clip-path="url(#clip0_1134_1618)">
<path d="M4.64388 27.3625C3.96597 27.364 3.29982 27.1855 2.71348 26.8453C2.12715 26.505 1.64163 26.0152 1.30655 25.4259C0.976592 24.8407 0.812034 24.1768 0.830501 23.5053C0.848969 22.8338 1.04977 22.18 1.41139 21.6138L8.28407 10.8212C8.63583 10.2411 9.13524 9.76487 9.73129 9.441C10.3273 9.11713 10.9987 8.95727 11.6767 8.97776C12.3543 8.994 13.0153 9.18996 13.5922 9.54559C14.1692 9.90122 14.6413 10.4037 14.9602 11.0017C15.6009 12.2132 15.5208 13.6708 14.7534 14.808L7.88511 25.6006C7.53681 26.1434 7.05713 26.5894 6.49054 26.8974C5.92394 27.2054 5.28876 27.3654 4.64388 27.3625Z" fill="#878787"/>
<path d="M16.4328 27.3622C15.0467 27.3622 13.7711 26.6211 13.1013 25.43C12.7721 24.8464 12.6079 24.1843 12.6264 23.5145C12.6449 22.8447 12.8453 22.1926 13.2062 21.6281L20.0658 10.8602C20.4123 10.272 20.91 9.78725 21.507 9.4562C22.1041 9.12514 22.7789 8.95985 23.4613 8.97747C24.8592 9.00805 26.126 9.78998 26.7666 11.0131C27.4029 12.2362 27.3097 13.7025 26.5191 14.8368L19.661 25.6047C19.3137 26.1452 18.836 26.5895 18.2718 26.8966C17.7077 27.2038 17.0752 27.3639 16.4328 27.3622Z" fill="#878787"/>
<path d="M27.9572 27.4525C29.9113 27.4525 31.4955 25.9016 31.4955 23.9884C31.4955 22.0753 29.9113 20.5244 27.9572 20.5244C26.0031 20.5244 24.4189 22.0753 24.4189 23.9884C24.4189 25.9016 26.0031 27.4525 27.9572 27.4525Z" fill="#878787"/>
<path d="M181.669 20.7253C182.738 20.7253 183.377 21.4854 183.377 22.7304V26.9967H184.829V22.6328C184.829 20.5156 183.832 19.2881 181.956 19.2881C181.222 19.2881 180.058 19.4891 179.363 20.8389C179.202 20.4408 178.935 20.0938 178.593 19.8348C178.25 19.5759 177.843 19.4146 177.416 19.3682C177.147 19.319 176.874 19.3029 176.601 19.3202C176.004 19.3682 174.941 19.7395 174.543 20.5812V19.4498H173.09V26.9967H174.543V22.924C174.543 21.3398 175.58 20.7253 176.618 20.7253C177.591 20.7253 178.23 21.4694 178.23 22.7144V26.9967H179.675V22.924C179.675 21.663 180.432 20.7108 181.669 20.7253ZM167.757 25.7358C168.421 25.7503 169.061 25.4853 169.526 25.0048C169.992 24.5243 170.239 23.8705 170.215 23.1992C170.215 21.6791 169.096 20.7253 167.757 20.7253C166.416 20.7253 165.299 21.6791 165.299 23.1992C165.273 23.869 165.52 24.5214 165.983 25.0004C166.446 25.4809 167.084 25.7474 167.745 25.7358H167.757ZM167.757 27.1511C165.634 27.1511 163.862 25.5829 163.862 23.1905C163.862 20.7981 165.634 19.2794 167.757 19.2794C169.88 19.2794 171.666 20.7981 171.666 23.1905C171.666 25.5829 169.869 27.1584 167.746 27.1584L167.757 27.1511ZM156.385 23.1905L156.37 23.1992C156.37 20.8069 158.189 19.2881 160.326 19.2794C160.863 19.269 161.396 19.3715 161.891 19.5802C162.386 19.7889 162.832 20.0991 163.199 20.4909L162.098 21.4286C161.865 21.199 161.588 21.018 161.283 20.8961C160.979 20.7741 160.654 20.7136 160.326 20.718C158.987 20.718 157.822 21.6718 157.822 23.1905C157.822 24.217 158.432 25.1417 159.368 25.5348C160.304 25.928 161.382 25.7096 162.098 24.9844L163.215 25.9221C162.847 26.3179 162.399 26.6319 161.901 26.8436C161.404 27.0553 160.867 27.1601 160.326 27.1511C158.205 27.1511 156.385 25.5829 156.385 23.1905ZM151.735 25.5479C151.734 25.416 151.758 25.285 151.807 25.1625C151.856 25.0401 151.929 24.9284 152.021 24.8341C152.114 24.7397 152.224 24.6644 152.345 24.6125C152.466 24.5606 152.597 24.5331 152.728 24.5316C152.86 24.5331 152.991 24.5606 153.112 24.6125C153.233 24.6644 153.343 24.7397 153.435 24.8341C153.528 24.9284 153.6 25.0401 153.65 25.1625C153.699 25.285 153.723 25.416 153.722 25.5479C153.709 25.8035 153.599 26.0444 153.414 26.2217C153.23 26.3989 152.984 26.499 152.728 26.5017C152.473 26.499 152.227 26.3989 152.043 26.2217C151.858 26.0444 151.748 25.8035 151.735 25.5479Z" fill="#878787"/>
<path fill-rule="evenodd" clip-rule="evenodd" d="M155.707 9.85549H150.537L146.913 19.1993L143.307 9.85549H138.137L144.423 24.6204L140.513 34.3821H145.646L155.707 9.85549ZM124.262 18.0679C124.262 20.4268 126.324 21.979 128.349 21.979C130.34 21.979 132.295 20.5346 132.295 18.0665C132.295 15.5984 130.34 14.1525 128.349 14.1525C126.324 14.1525 124.262 15.7076 124.262 18.0679ZM132.295 26.3124V24.4442C131.247 26.0313 128.8 26.6313 127.545 26.6313C123.39 26.6313 119.233 23.355 119.233 18.0665C119.233 12.7793 123.388 9.50312 127.545 9.50312C128.592 9.50312 131.038 9.85258 132.295 11.6873V9.86132H137.115V26.3153L132.295 26.3124ZM117.861 26.3124H113.041V24.268C112.236 25.7823 110.284 26.6647 108.257 26.6647C104.065 26.6647 100.362 23.3172 100.362 18.1334C100.362 12.8522 104.065 9.50021 108.257 9.50021C110.281 9.50021 112.239 10.3447 113.041 11.8605V0.891724H117.861V26.3124ZM112.937 18.0301C112.937 15.5634 111.156 14.1175 109.165 14.1175C107.103 14.1175 105.391 15.6683 105.391 18.0301C105.391 20.4676 107.103 22.011 109.164 22.011C111.192 22.014 112.937 20.3919 112.937 18.0301ZM88.4453 17.6049C88.4453 15.1033 89.7383 14.2573 91.4492 14.2573C93.0902 14.2573 94.2783 15.3494 94.2783 17.5335V26.3095H99.1329V16.4779C99.1329 11.7921 96.8265 9.50021 93.1586 9.50021C91.238 9.50021 89.3175 10.5923 88.4438 12.2493V9.85549H83.5922V26.3095H88.4453V17.6049ZM73.7345 26.5919C69.1246 26.5919 65.2791 23.2094 65.2791 18.0286C65.2791 12.8449 69.1202 9.49584 73.7345 9.49584C78.3488 9.49584 82.2235 12.8449 82.2235 18.0286C82.2235 23.2123 78.3445 26.5919 73.7345 26.5919ZM73.7345 21.8014C75.7585 21.8014 77.4373 20.319 77.4373 18.0301C77.4373 15.8095 75.7599 14.2937 73.7345 14.2937C73.2468 14.2861 72.7627 14.3778 72.3116 14.5633C71.8605 14.7488 71.4519 15.0242 71.1107 15.3727C70.7674 15.723 70.4981 16.1388 70.3188 16.5953C70.1394 17.0518 70.0537 17.5398 70.0667 18.0301C70.0681 20.322 71.7441 21.8014 73.7345 21.8014ZM56.5761 14.2587C58.0074 14.2587 59.2655 15.3872 59.2655 17.535V26.3124H64.0851V16.9671C64.0851 11.9989 61.6695 9.49729 57.7977 9.49729C56.6474 9.49729 54.4808 9.84676 52.9082 12.4211C51.9996 10.518 50.2538 9.53078 47.6736 9.53078C46.7778 9.52623 45.8996 9.77977 45.1441 10.2611C44.3886 10.7424 43.7876 11.4311 43.4131 12.245V9.85695H38.5557V26.3109H43.4088V17.6049C43.4088 15.1033 44.7717 14.2573 46.2379 14.2573C47.6358 14.2573 48.8909 15.3494 48.9273 17.4287V26.3109H53.7819V17.6049C53.7819 15.2125 55.0399 14.2587 56.5761 14.2587Z" fill="#878787"/>
</g>
<defs>
<clipPath id="clip0_1134_1618">
<rect width="184" height="33.4904" fill="white" transform="translate(0.829102 0.891724)"/>
</clipPath>
</defs>
</svg>
