<svg width="40" height="41" viewBox="0 0 40 41" fill="none" xmlns="http://www.w3.org/2000/svg">
<rect y="0.273926" width="40" height="40" rx="20" fill="#D6D6D6"/>
<path d="M13 29.2739L13 23.2739M13 23.2739C14.1046 23.2739 15 22.3785 15 21.2739C15 20.1694 14.1046 19.2739 13 19.2739C11.8954 19.2739 11 20.1694 11 21.2739C11 22.3785 11.8954 23.2739 13 23.2739ZM13 15.2739V11.2739M20 29.2739V23.2739M20 15.2739V11.2739M20 15.2739C18.8954 15.2739 18 16.1694 18 17.2739C18 18.3785 18.8954 19.2739 20 19.2739C21.1046 19.2739 22 18.3785 22 17.2739C22 16.1694 21.1046 15.2739 20 15.2739ZM27 29.2739V25.2739M27 25.2739C28.1046 25.2739 29 24.3785 29 23.2739C29 22.1694 28.1046 21.2739 27 21.2739C25.8954 21.2739 25 22.1694 25 23.2739C25 24.3785 25.8954 25.2739 27 25.2739ZM27 17.2739V11.2739" stroke="white" stroke-width="2" stroke-linecap="round" stroke-linejoin="round"/>
</svg>
