<svg width="41" height="41" viewBox="0 0 41 41" fill="none" xmlns="http://www.w3.org/2000/svg">
<rect x="0.5" y="0.273926" width="40" height="40" rx="20" fill="white" fill-opacity="0.2"/>
<path d="M30.96 13.7739C30.19 14.1239 29.36 14.3539 28.5 14.4639C29.38 13.9339 30.06 13.0939 30.38 12.0839C29.55 12.5839 28.63 12.9339 27.66 13.1339C26.87 12.2739 25.76 11.7739 24.5 11.7739C22.15 11.7739 20.23 13.6939 20.23 16.0639C20.23 16.4039 20.27 16.7339 20.34 17.0439C16.78 16.8639 13.61 15.1539 11.5 12.5639C11.13 13.1939 10.92 13.9339 10.92 14.7139C10.92 16.2039 11.67 17.5239 12.83 18.2739C12.12 18.2739 11.46 18.0739 10.88 17.7739V17.8039C10.88 19.8839 12.36 21.6239 14.32 22.0139C13.6908 22.1861 13.0301 22.2101 12.39 22.0839C12.6616 22.9364 13.1936 23.6823 13.9111 24.2169C14.6285 24.7514 15.4955 25.0476 16.39 25.0639C14.8737 26.2644 12.994 26.9132 11.06 26.9039C10.72 26.9039 10.38 26.8839 10.04 26.8439C11.94 28.0639 14.2 28.7739 16.62 28.7739C24.5 28.7739 28.83 22.2339 28.83 16.5639C28.83 16.3739 28.83 16.1939 28.82 16.0039C29.66 15.4039 30.38 14.6439 30.96 13.7739Z" fill="#D6D6D6"/>
</svg>
