<svg width="33" height="33" viewBox="0 0 33 33" fill="none" xmlns="http://www.w3.org/2000/svg">
<rect x="0.5" y="0.568359" width="32" height="32" rx="4" fill="white"/>
<path d="M26.96 10.0684C26.19 10.4184 25.36 10.6484 24.5 10.7584C25.38 10.2284 26.06 9.38836 26.38 8.37836C25.55 8.87836 24.63 9.22836 23.66 9.42836C22.87 8.56836 21.76 8.06836 20.5 8.06836C18.15 8.06836 16.23 9.98836 16.23 12.3584C16.23 12.6984 16.27 13.0284 16.34 13.3384C12.78 13.1584 9.61004 11.4484 7.50004 8.85836C7.13004 9.48836 6.92004 10.2284 6.92004 11.0084C6.92004 12.4984 7.67004 13.8184 8.83004 14.5684C8.12004 14.5684 7.46004 14.3684 6.88004 14.0684V14.0984C6.88004 16.1784 8.36004 17.9184 10.32 18.3084C9.69077 18.4806 9.03013 18.5045 8.39004 18.3784C8.66165 19.2308 9.19358 19.9768 9.91106 20.5113C10.6285 21.0458 11.4955 21.3421 12.39 21.3584C10.8737 22.5588 8.99404 23.2077 7.06004 23.1984C6.72004 23.1984 6.38004 23.1784 6.04004 23.1384C7.94004 24.3584 10.2 25.0684 12.62 25.0684C20.5 25.0684 24.83 18.5284 24.83 12.8584C24.83 12.6684 24.83 12.4884 24.82 12.2984C25.66 11.6984 26.38 10.9384 26.96 10.0684Z" fill="#878787"/>
</svg>
