<svg width="165" height="35" viewBox="0 0 165 35" fill="none" xmlns="http://www.w3.org/2000/svg">
<g clip-path="url(#clip0_1413_462)">
<mask id="mask0_1413_462" style="mask-type:luminance" maskUnits="userSpaceOnUse" x="0" y="0" width="165" height="35">
<path d="M164.899 0.636963H0.382812V34.637H164.899V0.636963Z" fill="white"/>
</mask>
<g mask="url(#mask0_1413_462)">
<mask id="mask1_1413_462" style="mask-type:luminance" maskUnits="userSpaceOnUse" x="0" y="0" width="165" height="35">
<path d="M164.899 0.636963H0.382812V34.637H164.899V0.636963Z" fill="white"/>
</mask>
<g mask="url(#mask1_1413_462)">
<path d="M156.627 20.6812C159.735 16.8046 155.668 11.1265 160.055 9.57589C159.963 8.48132 158.935 7.84282 157.61 7.84282C156.422 7.84282 155.165 8.48132 154.365 9.53028C149.75 15.482 144.951 20.0655 142.186 20.0655C141.272 20.0655 140.953 19.655 140.953 18.9253C140.953 16.7134 143.74 13.4525 145.888 11.1721C146.162 10.8757 146.277 10.5792 146.277 10.3056C146.277 9.6443 145.5 9.18823 144.563 9.18823C142.209 9.18823 137.297 12.928 133.664 16.3257C134.966 13.8857 136.406 11.9246 136.406 10.8757C136.406 9.75832 135.24 9.43907 133.915 9.46187C128.751 16.3257 122.102 21.3881 117.852 21.3881C116.755 21.3881 116.001 21.0232 115.544 20.476C120.959 18.264 125.506 14.5699 125.506 11.8334C125.506 10.146 124.09 9.39346 122.102 9.39346C116.984 9.39346 110.54 14.8207 110.22 20.2479C105.307 22.0038 101.629 21.7073 100.509 20.476C105.924 18.264 110.471 14.5699 110.471 11.8334C110.471 10.146 109.055 9.39346 107.067 9.39346C101.903 9.39346 95.3908 14.9119 95.1623 20.3847C92.6945 21.1373 89.8841 21.4793 89.8841 19.4498C89.8841 16.0977 94.9109 13.3613 94.9109 11.1265C94.9109 10.5108 94.6367 9.98635 94.1798 9.71271C92.5803 10.5336 90.204 11.2177 88.4674 11.2177C88.9015 9.82673 88.4445 8.75496 87.0736 8.75496C85.0628 8.75496 83.5319 10.9897 83.5319 12.8368C83.5319 13.6349 83.829 14.205 84.3088 14.5699C82.3209 17.2379 79.8075 19.6778 76.4029 21.6161C77.4083 19.5182 78.208 17.2607 79.2819 14.0682C81.9096 12.5175 83.2577 9.37066 77.9566 9.37066C73.6152 9.37066 68.794 11.9703 65.8007 15.482C61.8706 20.0655 57.0951 22.6195 56.2497 19.1534C62.7389 14.2962 68.7712 7.40956 68.7026 3.96623C68.6798 2.73484 67.9486 1.89111 66.1892 1.89111C62.0763 1.89111 52.4795 11.2405 51.6569 19.541C44.7792 23.2124 45.5561 17.4203 47.6583 14.3874C50.7201 12.814 52.8222 9.37066 47.1327 9.37066C38.8612 9.37066 32.0749 17.0326 32.1892 21.9354C32.212 23.3948 32.9432 24.5806 34.497 24.5806C36.2792 24.5806 39.1126 23.3492 42.1058 20.2707C41.5346 23.2352 42.2201 24.5806 44.6421 24.5806C46.6072 24.5806 49.1435 23.6 51.8169 22.0494C52.251 23.4404 53.4163 24.5806 55.6784 24.5806C58.0319 24.5806 60.9338 22.7335 63.1959 20.3391C63.0816 20.8636 63.0131 21.3881 63.0131 21.9354C63.0131 23.6456 63.9271 24.5806 65.298 24.5806C66.8518 24.5806 69.1596 23.3492 71.6959 20.9548C71.2846 22.0494 70.8276 23.144 70.3021 24.2385C64.8411 26.1768 59.1744 28.2519 59.1744 32.0373C59.1744 33.6336 60.4997 34.5913 62.1905 34.5913C66.3034 34.5913 71.3303 29.7114 74.4835 24.9226C78.3908 23.1668 82.915 19.8831 86.4338 15.1399C87.3478 15.1627 88.3532 15.0031 89.29 14.7523C86.2967 17.922 84.9029 19.9743 84.9029 21.981C84.9029 23.6456 86.1596 24.535 88.3989 24.535C90.3411 24.535 92.7859 23.8509 95.665 22.5739C96.5104 23.8737 98.2698 24.535 100.532 24.535C103.914 24.535 107.638 23.3948 110.54 22.1862C111.18 23.5544 112.734 24.535 115.201 24.535C120.228 24.535 124.775 21.3425 128.614 17.9448C126.877 20.5672 124.295 24.535 127.928 24.535C128.5 24.535 129.299 24.4438 129.962 24.2157C132.544 19.5182 135.88 16.4853 139.216 14.5014C136.474 17.8992 135.332 20.4988 135.332 22.1862C135.332 23.7369 136.291 24.535 137.868 24.535C142.689 24.535 148.356 19.5866 153.223 13.9314C153.474 16.0977 154.799 18.4236 152.492 20.4303C148.996 20.3391 147.053 21.3425 147.053 22.9843C147.053 23.9877 147.899 24.535 149.087 24.535C150.298 24.535 151.486 24.1929 152.606 23.6456C154.571 24.2157 156.582 24.8086 158.935 24.8086C162.385 24.8086 164.807 23.0756 164.876 20.2251C162.934 21.3425 159.758 20.9548 156.627 20.6812ZM63.9499 5.67649C64.3384 5.67649 64.5212 5.88172 64.5212 6.24658C64.5212 7.95684 60.4311 13.2244 56.341 16.5538C57.3921 12.928 62.0306 5.67649 63.9499 5.67649ZM36.0279 18.8113C36.0279 15.9381 40.5064 12.5403 44.0937 12.5403C44.8249 12.5403 45.4876 12.6544 46.0816 12.928C41.7631 19.7234 36.0279 21.9582 36.0279 18.8113ZM62.9674 32.5162C62.5561 32.5162 62.3048 32.311 62.3048 31.9005C62.3048 30.9656 64.1327 28.5712 68.9311 26.8381C66.8975 30.1446 64.5212 32.5162 62.9674 32.5162ZM66.8747 18.8113C66.8747 15.8468 71.3988 12.5403 74.9177 12.5403C75.6032 12.5403 76.3115 12.6544 76.9284 12.9052C72.7927 19.4498 66.8747 22.0722 66.8747 18.8113ZM105.582 12.1755C106.107 12.1755 106.45 12.4035 106.45 12.928C106.45 14.319 103.525 16.7818 99.8921 18.5149C99.8693 16.0293 103.685 12.1755 105.582 12.1755ZM114.95 18.5149C114.95 16.0293 118.743 12.1755 120.639 12.1755C121.165 12.1755 121.508 12.4035 121.508 12.928C121.508 14.2962 118.583 16.759 114.95 18.5149Z" fill="white"/>
</g>
<mask id="mask2_1413_462" style="mask-type:luminance" maskUnits="userSpaceOnUse" x="0" y="0" width="165" height="35">
<path d="M164.899 0.636963H0.382812V34.637H164.899V0.636963Z" fill="white"/>
</mask>
<g mask="url(#mask2_1413_462)">
<path d="M34.9312 0.636963C33.3774 0.636963 31.8922 1.5491 30.9325 2.96292C35.4796 5.92737 29.9043 20.7268 21.6785 20.7268C20.696 20.7268 19.8506 20.4304 19.3022 19.8603C23.7578 15.8469 26.9796 10.4197 26.9796 7.20437C26.9796 5.56252 26.1799 4.51356 24.2833 4.51356C18.8223 4.51356 13.0643 13.4525 14.1153 19.9287C10.6651 21.1601 8.95136 19.6323 8.95136 16.5538C8.95136 10.146 15.6691 3.4874 15.2807 1.5035C8.33442 3.62422 2.89625 -1.34694 0.382812 6.7483C3.76453 4.92402 6.87206 7.84286 10.7336 5.69934C7.42045 9.53032 4.08443 14.9119 4.13012 19.4726C4.15297 22.4599 5.77529 24.6034 9.27125 24.6034C11.2592 24.6034 13.3156 23.9193 15.3035 22.7791C16.1489 23.8509 17.5199 24.6034 19.6221 24.6034C28.1678 24.6034 37.4903 12.6316 37.4903 4.10309C37.4903 1.84555 36.5764 0.636963 34.9312 0.636963ZM18.5024 17.1011C18.571 12.4948 21.8385 7.63763 23.5065 7.63763C23.9863 7.63763 24.1006 7.95688 24.1006 8.29893C24.1006 9.87237 21.7471 14.091 18.5024 17.1011Z" fill="white"/>
</g>
</g>
</g>
<defs>
<clipPath id="clip0_1413_462">
<rect width="164.516" height="34" fill="white" transform="translate(0.382812 0.636963)"/>
</clipPath>
</defs>
</svg>
