<svg width="165" height="35" viewBox="0 0 165 35" fill="none" xmlns="http://www.w3.org/2000/svg">
<g clip-path="url(#clip0_1134_1660)">
<mask id="mask0_1134_1660" style="mask-type:luminance" maskUnits="userSpaceOnUse" x="0" y="0" width="165" height="35">
<path d="M164.899 0.636902H0.382812V34.6369H164.899V0.636902Z" fill="white"/>
</mask>
<g mask="url(#mask0_1134_1660)">
<mask id="mask1_1134_1660" style="mask-type:luminance" maskUnits="userSpaceOnUse" x="0" y="0" width="165" height="35">
<path d="M164.899 0.636902H0.382812V34.6369H164.899V0.636902Z" fill="white"/>
</mask>
<g mask="url(#mask1_1134_1660)">
<path d="M156.627 20.6812C159.735 16.8046 155.667 11.1265 160.055 9.57589C159.963 8.48132 158.935 7.84282 157.61 7.84282C156.421 7.84282 155.165 8.48132 154.365 9.53028C149.749 15.482 144.951 20.0655 142.186 20.0655C141.272 20.0655 140.952 19.655 140.952 18.9253C140.952 16.7134 143.74 13.4525 145.888 11.1721C146.162 10.8757 146.276 10.5792 146.276 10.3056C146.276 9.6443 145.499 9.18823 144.563 9.18823C142.209 9.18823 137.296 12.928 133.663 16.3257C134.966 13.8857 136.405 11.9246 136.405 10.8757C136.405 9.75832 135.24 9.43907 133.915 9.46187C128.751 16.3257 122.102 21.3881 117.852 21.3881C116.755 21.3881 116.001 21.0232 115.544 20.476C120.959 18.264 125.506 14.5699 125.506 11.8334C125.506 10.146 124.089 9.39346 122.102 9.39346C116.983 9.39346 110.54 14.8207 110.22 20.2479C105.307 22.0038 101.628 21.7073 100.509 20.476C105.924 18.264 110.471 14.5699 110.471 11.8334C110.471 10.146 109.055 9.39346 107.067 9.39346C101.903 9.39346 95.3905 14.9119 95.162 20.3847C92.6943 21.1373 89.8838 21.4793 89.8838 19.4498C89.8838 16.0977 94.9107 13.3613 94.9107 11.1265C94.9107 10.5108 94.6365 9.98635 94.1795 9.71271C92.5801 10.5336 90.2037 11.2177 88.4672 11.2177C88.9013 9.82673 88.4443 8.75496 87.0733 8.75496C85.0626 8.75496 83.5317 10.9897 83.5317 12.8368C83.5317 13.6349 83.8287 14.205 84.3085 14.5699C82.3206 17.2379 79.8072 19.6778 76.4026 21.6161C77.408 19.5182 78.2077 17.2607 79.2817 14.0682C81.9094 12.5175 83.2575 9.37066 77.9564 9.37066C73.615 9.37066 68.7938 11.9703 65.8005 15.482C61.8704 20.0655 57.0948 22.6195 56.2494 19.1534C62.7387 14.2962 68.7709 7.40956 68.7024 3.96623C68.6795 2.73484 67.9483 1.89111 66.1889 1.89111C62.076 1.89111 52.4792 11.2405 51.6567 19.541C44.779 23.2124 45.5559 17.4203 47.658 14.3874C50.7198 12.814 52.822 9.37066 47.1325 9.37066C38.861 9.37066 32.0747 17.0326 32.1889 21.9354C32.2118 23.3948 32.943 24.5806 34.4967 24.5806C36.279 24.5806 39.1123 23.3492 42.1056 20.2707C41.5344 23.2352 42.2198 24.5806 44.6419 24.5806C46.6069 24.5806 49.1432 23.6 51.8166 22.0494C52.2508 23.4404 53.4161 24.5806 55.6782 24.5806C58.0317 24.5806 60.9335 22.7335 63.1956 20.3391C63.0814 20.8636 63.0129 21.3881 63.0129 21.9354C63.0129 23.6456 63.9268 24.5806 65.2978 24.5806C66.8516 24.5806 69.1594 23.3492 71.6956 20.9548C71.2844 22.0494 70.8274 23.144 70.3018 24.2385C64.8408 26.1768 59.1741 28.2519 59.1741 32.0373C59.1741 33.6336 60.4994 34.5913 62.1903 34.5913C66.3032 34.5913 71.3301 29.7114 74.4833 24.9226C78.3905 23.1668 82.9147 19.8831 86.4336 15.1399C87.3475 15.1627 88.3529 15.0031 89.2897 14.7523C86.2965 17.922 84.9026 19.9743 84.9026 21.981C84.9026 23.6456 86.1594 24.535 88.3986 24.535C90.3408 24.535 92.7857 23.8509 95.6647 22.5739C96.5102 23.8737 98.2696 24.535 100.532 24.535C103.913 24.535 107.638 23.3948 110.54 22.1862C111.18 23.5544 112.733 24.535 115.201 24.535C120.228 24.535 124.775 21.3425 128.614 17.9448C126.877 20.5672 124.295 24.535 127.928 24.535C128.499 24.535 129.299 24.4438 129.962 24.2157C132.544 19.5182 135.88 16.4853 139.216 14.5014C136.474 17.8992 135.331 20.4988 135.331 22.1862C135.331 23.7369 136.291 24.535 137.868 24.535C142.689 24.535 148.356 19.5866 153.223 13.9314C153.474 16.0977 154.799 18.4236 152.491 20.4303C148.995 20.3391 147.053 21.3425 147.053 22.9843C147.053 23.9877 147.899 24.535 149.087 24.535C150.298 24.535 151.486 24.1929 152.606 23.6456C154.571 24.2157 156.581 24.8086 158.935 24.8086C162.385 24.8086 164.807 23.0756 164.876 20.2251C162.934 21.3425 159.757 20.9548 156.627 20.6812ZM63.9497 5.67649C64.3381 5.67649 64.5209 5.88172 64.5209 6.24658C64.5209 7.95684 60.4309 13.2244 56.3408 16.5538C57.3919 12.928 62.0303 5.67649 63.9497 5.67649ZM36.0276 18.8113C36.0276 15.9381 40.5061 12.5403 44.0935 12.5403C44.8247 12.5403 45.4873 12.6544 46.0814 12.928C41.7628 19.7234 36.0276 21.9582 36.0276 18.8113ZM62.9671 32.5162C62.5559 32.5162 62.3045 32.311 62.3045 31.9005C62.3045 30.9656 64.1325 28.5712 68.9309 26.8381C66.8973 30.1446 64.5209 32.5162 62.9671 32.5162ZM66.8744 18.8113C66.8744 15.8468 71.3986 12.5403 74.9174 12.5403C75.6029 12.5403 76.3112 12.6544 76.9282 12.9052C72.7924 19.4498 66.8744 22.0722 66.8744 18.8113ZM105.581 12.1755C106.107 12.1755 106.45 12.4035 106.45 12.928C106.45 14.319 103.525 16.7818 99.8919 18.5149C99.869 16.0293 103.685 12.1755 105.581 12.1755ZM114.95 18.5149C114.95 16.0293 118.743 12.1755 120.639 12.1755C121.165 12.1755 121.507 12.4035 121.507 12.928C121.507 14.2962 118.583 16.759 114.95 18.5149Z" fill="#878787"/>
</g>
<mask id="mask2_1134_1660" style="mask-type:luminance" maskUnits="userSpaceOnUse" x="0" y="0" width="165" height="35">
<path d="M164.899 0.636902H0.382812V34.6369H164.899V0.636902Z" fill="white"/>
</mask>
<g mask="url(#mask2_1134_1660)">
<path d="M34.9312 0.636902C33.3774 0.636902 31.8922 1.54904 30.9325 2.96286C35.4796 5.92731 29.9043 20.7268 21.6785 20.7268C20.696 20.7268 19.8506 20.4303 19.3022 19.8602C23.7578 15.8468 26.9796 10.4196 26.9796 7.20431C26.9796 5.56245 26.1799 4.51349 24.2833 4.51349C18.8223 4.51349 13.0643 13.4525 14.1153 19.9287C10.6651 21.16 8.95136 19.6322 8.95136 16.5537C8.95136 10.146 15.6691 3.48734 15.2807 1.50343C8.33442 3.62416 2.89625 -1.347 0.382812 6.74824C3.76453 4.92396 6.87206 7.8428 10.7336 5.69928C7.42045 9.53026 4.08443 14.9119 4.13012 19.4726C4.15297 22.4598 5.77529 24.6034 9.27125 24.6034C11.2592 24.6034 13.3156 23.9193 15.3035 22.7791C16.1489 23.8509 17.5199 24.6034 19.6221 24.6034C28.1678 24.6034 37.4903 12.6315 37.4903 4.10303C37.4903 1.84549 36.5764 0.636902 34.9312 0.636902ZM18.5024 17.101C18.571 12.4947 21.8385 7.63757 23.5065 7.63757C23.9863 7.63757 24.1006 7.95682 24.1006 8.29887C24.1006 9.87231 21.7471 14.091 18.5024 17.101Z" fill="#878787"/>
</g>
</g>
</g>
<defs>
<clipPath id="clip0_1134_1660">
<rect width="164.516" height="34" fill="white" transform="translate(0.382812 0.636902)"/>
</clipPath>
</defs>
</svg>
