<svg width="129" height="35" viewBox="0 0 129 35" fill="none" xmlns="http://www.w3.org/2000/svg">
<g clip-path="url(#clip0_1134_1678)">
<path d="M10.3921 22.0569L0.758789 1.54357H9.71212L14.4721 14.4636L19.3455 1.54357H28.1855L18.6655 22.0569V33.7302H10.3921V22.0569ZM59.881 1.54357H70.5343C74.161 1.54357 80.621 1.54357 84.8143 7.55024C87.081 10.6102 87.761 14.0102 87.761 17.5236C87.761 26.3636 83.4543 33.7302 71.2143 33.7302H59.9943V1.54357H59.881ZM68.041 26.4769H71.5543C77.6743 26.4769 79.4877 22.1702 79.4877 17.6369C79.4877 15.8236 79.1477 13.5569 77.901 11.6302C76.9943 10.1569 75.2943 8.68357 71.6677 8.68357H68.1543V26.4769H68.041ZM89.6877 1.54357H107.934V8.7969H97.961V13.7836H107.708V21.0369H97.961V26.5902H107.934V33.8436H89.6877V1.54357ZM110.201 1.54357H118.474V26.4769H127.994V33.7302H110.201V1.54357ZM24.4455 17.6369C24.4455 8.23024 32.0388 0.636902 41.4455 0.636902C50.8521 0.636902 58.4455 8.23024 58.4455 17.6369C58.4455 27.0436 50.8521 34.6369 41.4455 34.6369C32.0388 34.6369 24.4455 27.0436 24.4455 17.6369ZM41.4455 27.2702C46.7721 27.2702 51.0788 22.9636 51.0788 17.6369C51.0788 12.3102 46.7721 8.00357 41.4455 8.00357C36.1188 8.00357 31.8121 12.3102 31.8121 17.6369C31.8121 22.9636 36.1188 27.2702 41.4455 27.2702Z" fill="#878787"/>
</g>
<defs>
<clipPath id="clip0_1134_1678">
<rect width="127.311" height="34" fill="white" transform="translate(0.758789 0.636902)"/>
</clipPath>
</defs>
</svg>
