<svg width="129" height="35" viewBox="0 0 129 35" fill="none" xmlns="http://www.w3.org/2000/svg">
<g clip-path="url(#clip0_1413_485)">
<path d="M10.3921 22.057L0.758789 1.54363H9.71212L14.4721 14.4636L19.3455 1.54363H28.1855L18.6655 22.057V33.7303H10.3921V22.057ZM59.881 1.54363H70.5343C74.161 1.54363 80.621 1.54363 84.8143 7.5503C87.081 10.6103 87.761 14.0103 87.761 17.5236C87.761 26.3636 83.4543 33.7303 71.2143 33.7303H59.9943V1.54363H59.881ZM68.041 26.477H71.5543C77.6743 26.477 79.4877 22.1703 79.4877 17.637C79.4877 15.8236 79.1477 13.557 77.901 11.6303C76.9943 10.157 75.2943 8.68363 71.6677 8.68363H68.1543V26.477H68.041ZM89.6877 1.54363H107.934V8.79696H97.961V13.7836H107.708V21.037H97.961V26.5903H107.934V33.8436H89.6877V1.54363ZM110.201 1.54363H118.474V26.477H127.994V33.7303H110.201V1.54363ZM24.4455 17.637C24.4455 8.2303 32.0388 0.636963 41.4455 0.636963C50.8521 0.636963 58.4455 8.2303 58.4455 17.637C58.4455 27.0436 50.8521 34.637 41.4455 34.637C32.0388 34.637 24.4455 27.0436 24.4455 17.637ZM41.4455 27.2703C46.7721 27.2703 51.0788 22.9636 51.0788 17.637C51.0788 12.3103 46.7721 8.00363 41.4455 8.00363C36.1188 8.00363 31.8121 12.3103 31.8121 17.637C31.8121 22.9636 36.1188 27.2703 41.4455 27.2703Z" fill="white"/>
</g>
<defs>
<clipPath id="clip0_1413_485">
<rect width="127.311" height="34" fill="white" transform="translate(0.758789 0.636963)"/>
</clipPath>
</defs>
</svg>
