<svg width="40" height="40" viewBox="0 0 40 40" fill="none" xmlns="http://www.w3.org/2000/svg">
<rect width="40" height="40" rx="20" fill="#2798FF"/>
<path d="M17.5 30H22.5M18 18H22M20 18L20 24M23 23.3264C25.3649 22.2029 27 19.7924 27 17C27 13.134 23.866 10 20 10C16.134 10 13 13.134 13 17C13 19.7924 14.6351 22.2029 17 23.3264V24C17 24.9319 17 25.3978 17.1522 25.7654C17.3552 26.2554 17.7446 26.6448 18.2346 26.8478C18.6022 27 19.0681 27 20 27C20.9319 27 21.3978 27 21.7654 26.8478C22.2554 26.6448 22.6448 26.2554 22.8478 25.7654C23 25.3978 23 24.9319 23 24V23.3264Z" stroke="white" stroke-width="2" stroke-linecap="round" stroke-linejoin="round"/>
</svg>
