<svg width="40" height="41" viewBox="0 0 40 41" fill="none" xmlns="http://www.w3.org/2000/svg">
<rect y="0.273926" width="40" height="40" rx="20" fill="#D6D6D6"/>
<path d="M17.5 30.2739H22.5M18 18.2739H22M20 18.2739L20 24.2739M23 23.6003C25.3649 22.4768 27 20.0663 27 17.2739C27 13.4079 23.866 10.2739 20 10.2739C16.134 10.2739 13 13.4079 13 17.2739C13 20.0663 14.6351 22.4768 17 23.6003V24.2739C17 25.2058 17 25.6718 17.1522 26.0393C17.3552 26.5293 17.7446 26.9187 18.2346 27.1217C18.6022 27.2739 19.0681 27.2739 20 27.2739C20.9319 27.2739 21.3978 27.2739 21.7654 27.1217C22.2554 26.9187 22.6448 26.5293 22.8478 26.0393C23 25.6718 23 25.2058 23 24.2739V23.6003Z" stroke="white" stroke-width="2" stroke-linecap="round" stroke-linejoin="round"/>
</svg>
