<svg width="40" height="41" viewBox="0 0 40 41" fill="none" xmlns="http://www.w3.org/2000/svg">
<rect y="0.273926" width="40" height="40" rx="20" fill="#D6D6D6"/>
<path d="M28 20.7739V15.0739C28 13.3938 28 12.5537 27.673 11.912C27.3854 11.3475 26.9265 10.8885 26.362 10.6009C25.7202 10.2739 24.8802 10.2739 23.2 10.2739H16.8C15.1198 10.2739 14.2798 10.2739 13.638 10.6009C13.0735 10.8885 12.6146 11.3475 12.327 11.912C12 12.5537 12 13.3938 12 15.0739V25.4739C12 27.1541 12 27.9942 12.327 28.6359C12.6146 29.2004 13.0735 29.6593 13.638 29.9469C14.2798 30.2739 15.1198 30.2739 16.8 30.2739H20M22 19.2739H16M18 23.2739H16M24 15.2739H16M22.5 27.2739L24.5 29.2739L29 24.7739" stroke="white" stroke-width="2" stroke-linecap="round" stroke-linejoin="round"/>
</svg>
