<svg width="40" height="41" viewBox="0 0 40 41" fill="none" xmlns="http://www.w3.org/2000/svg">
<rect y="0.273926" width="40" height="40" rx="20" fill="#D6D6D6"/>
<path d="M24 26.2739L26 28.2739L30 24.2739M20 23.2739H16C14.1362 23.2739 13.2044 23.2739 12.4693 23.5784C11.4892 23.9844 10.7105 24.7631 10.3045 25.7432C10 26.4783 10 27.4102 10 29.2739M23.5 11.5647C24.9659 12.1581 26 13.5952 26 15.2739C26 16.9526 24.9659 18.3898 23.5 18.9832M21.5 15.2739C21.5 17.4831 19.7091 19.2739 17.5 19.2739C15.2909 19.2739 13.5 17.4831 13.5 15.2739C13.5 13.0648 15.2909 11.2739 17.5 11.2739C19.7091 11.2739 21.5 13.0648 21.5 15.2739Z" stroke="white" stroke-width="2" stroke-linecap="round" stroke-linejoin="round"/>
</svg>
