<svg width="40" height="41" viewBox="0 0 40 41" fill="none" xmlns="http://www.w3.org/2000/svg">
<rect y="0.273926" width="40" height="40" rx="20" fill="#2798FF"/>
<path d="M20 24.2739V29.2739M20 24.2739L26 29.2739M20 24.2739L14 29.2739M29 11.2739V19.4739C29 21.1541 29 21.9942 28.673 22.6359C28.3854 23.2004 27.9265 23.6593 27.362 23.9469C26.7202 24.2739 25.8802 24.2739 24.2 24.2739H15.8C14.1198 24.2739 13.2798 24.2739 12.638 23.9469C12.0735 23.6593 11.6146 23.2004 11.327 22.6359C11 21.9942 11 21.1541 11 19.4739V11.2739M16 17.2739V20.2739M20 15.2739V20.2739M24 19.2739V20.2739M30 11.2739H10" stroke="white" stroke-width="2" stroke-linecap="round" stroke-linejoin="round"/>
</svg>
