<svg width="40" height="41" viewBox="0 0 40 41" fill="none" xmlns="http://www.w3.org/2000/svg">
<rect y="0.273926" width="40" height="40" rx="20" fill="#2798FF"/>
<path d="M21 17.7739V14.3739C21 13.8139 21 13.5338 20.891 13.3199C20.7951 13.1318 20.6422 12.9788 20.454 12.8829C20.2401 12.7739 19.9601 12.7739 19.4 12.7739H11M25 22.7739V19.3739C25 18.8139 25 18.5338 24.891 18.3199C24.7951 18.1318 24.6422 17.9788 24.454 17.8829C24.2401 17.7739 23.9601 17.7739 23.4 17.7739H11M11 10.2739L11 30.2739M11 27.7739H27.4C27.9601 27.7739 28.2401 27.7739 28.454 27.6649C28.6422 27.5691 28.7951 27.4161 28.891 27.2279C29 27.014 29 26.734 29 26.1739V24.3739C29 23.8139 29 23.5338 28.891 23.3199C28.7951 23.1318 28.6422 22.9788 28.454 22.8829C28.2401 22.7739 27.9601 22.7739 27.4 22.7739L11 22.7739L11 27.7739Z" stroke="white" stroke-width="2" stroke-linecap="round" stroke-linejoin="round"/>
</svg>
