<svg width="40" height="41" viewBox="0 0 40 41" fill="none" xmlns="http://www.w3.org/2000/svg">
<rect y="0.273926" width="40" height="40" rx="20" fill="#2798FF"/>
<path d="M28 28.2739V21.2739M20 28.2739V18.2739M12 28.2739L12 24.2739M21.4067 13.3014L26.5751 15.2396M18.7988 13.6748L13.2002 17.8738M29.0607 14.7133C29.6464 15.2991 29.6464 16.2488 29.0607 16.8346C28.4749 17.4204 27.5251 17.4204 26.9393 16.8346C26.3536 16.2488 26.3536 15.2991 26.9393 14.7133C27.5251 14.1275 28.4749 14.1275 29.0607 14.7133ZM13.0607 17.7133C13.6464 18.2991 13.6464 19.2488 13.0607 19.8346C12.4749 20.4204 11.5251 20.4204 10.9393 19.8346C10.3536 19.2488 10.3536 18.2991 10.9393 17.7133C11.5251 17.1275 12.4749 17.1275 13.0607 17.7133ZM21.0607 11.7133C21.6464 12.2991 21.6464 13.2488 21.0607 13.8346C20.4749 14.4204 19.5251 14.4204 18.9393 13.8346C18.3536 13.2488 18.3536 12.2991 18.9393 11.7133C19.5251 11.1275 20.4749 11.1275 21.0607 11.7133Z" stroke="white" stroke-width="2" stroke-linecap="round" stroke-linejoin="round"/>
</svg>
